<svg id="Layer_1" xmlns="http://www.w3.org/2000/svg" viewBox="0 0 84.6 67.7"><style>.st0{fill:#2460AD;} .st1{fill:#272D61;} .st2{fill:#28ADC5;} .st3{fill:#FFFFFF;}</style><path class="st0" d="M84.6 64.7c0 .8-.3 1.5-.9 2.1-.6.6-1.3.9-2.1.9H3c-.8 0-1.5-.3-2.1-.9-.6-.6-.9-1.4-.9-2.1V15.2h84.6v49.5z"/><path class="st1" d="M84.6 15.2H0V3C0 2.2.3 1.5.9.9 1.5.3 2.2 0 3 0h78.6c.8 0 1.5.3 2.1.9.6.6.9 1.3.9 2.1v12.2z"/><path class="st2" d="M7.5 56.5h32.1v3.3H7.5z"/><path class="st3" d="M7.5 49.8h35.4v3.3H7.5z"/><path class="st2" d="M18.6 43.1h21v3.3h-21z"/><path class="st3" d="M7.5 29.7h21V33h-21z"/><path class="st2" d="M7.5 23H18v3.3H7.5z"/><path class="st3" d="M42.9 56.5h9.9v3.3h-9.9z"/><path class="st2" d="M46.2 49.8h17v3.3h-17z"/><path class="st3" d="M42.9 43.1h9.9v3.3h-9.9zM7.5 43.1h7.8v3.3H7.5z"/><path class="st2" d="M31.8 29.7h31.5V33H31.8z"/><path class="st3" d="M21.3 23h31.5v3.3H21.3z"/><path class="st2" d="M56.1 56.5h21v3.3h-21z"/><path class="st3" d="M66.6 49.8h10.5v3.3H66.6zM56.1 43.1h10.5v3.3H56.1zM66.6 29.7h10.5V33H66.6z"/><g><circle class="st3" cx="7.5" cy="7.6" r="2.5"/><circle class="st3" cx="14.9" cy="7.6" r="2.5"/><circle class="st3" cx="22.4" cy="7.6" r="2.5"/></g></svg>