<svg id="Layer_1" xmlns="http://www.w3.org/2000/svg" viewBox="0 0 70.6 66.3"><style>.st0{fill:#F6F2F1;} .st1{fill:#E6E8EB;} .st2{fill:#CED6D7;} .st3{fill:#B7BEC0;} .st4{fill:#020202;} .st5{fill:#9F9382;}</style><ellipse transform="matrix(-.9993 .03804 -.03804 -.9993 71.96 64.886)" class="st0" cx="35.4" cy="33.1" rx="35.2" ry="33.1"/><ellipse transform="rotate(177.82 30.464 29.9) scale(1.00002)" class="st0" cx="30.5" cy="29.9" rx="30.5" ry="29.7"/><path class="st1" d="M57.6 48.7c1 3.4.7 5.2 0 5.7-.3.2-.8.3-1.5.2-2.9-.5-7.6-4-12.2-9.1-.4.1-.8.3-1.2.4 6.5 7.3 13 11.3 15.5 9.4 1.4-1 1.4-3.6.3-7-.2.1-.5.2-.9.4z"/><path class="st2" d="M38.5 36.4c1.4-1.6 3.4 5.3 10.1 8.6 7 3.5 11 8 9.6 9.6-1.4 1.6-7-1.3-12.4-6.3-5.5-5-8.8-10.4-7.3-11.9z"/><path class="st3" d="M39.2 33c1.4-1.6 3.4 5.3 10.1 8.6 7 3.5 11 8 9.6 9.6-1.4 1.6-7-1.3-12.4-6.3-5.5-5-8.7-10.3-7.3-11.9z"/><path class="st1" d="M50.7 46.1c4.5 2.6 7.4 5.5 7.7 7.3.3.5.4 1 .3 1.4 1.8-2.1 3.3-4.3 4.5-6.5 0 0-.1-.1-.1-.2 0-1.7-3.4-5.1-8.7-8-.8 2.4-2.1 4.4-3.7 6z"/><path class="st2" d="M53.5 46.4c1.1-1.5 2.1-3.2 2.9-4.9l-2.1-1.2c-.6 1.8-1.5 3.5-2.7 4.9.7.3 1.3.8 1.9 1.2z"/><circle class="st2" cx="27.9" cy="29.3" r="27.1"/><circle class="st1" cx="29.7" cy="29.8" r="27.1"/><circle class="st2" cx="29.7" cy="29.8" r="25.1"/><circle class="st2" cx="29.7" cy="29.8" r="25.1"/><path class="st3" d="M6.5 39.4c3.9 8.4 12.4 14 22.1 13.6 12.9-.5 23-11.6 22.5-24.9C50.6 14.9 39.7 4.5 26.7 5c-.5 0-.9.1-1.4.1-12.1 2.2-21.2 13-20.7 25.7.1 3 .8 5.9 1.9 8.6z"/><path class="st4" d="M6 37.9c3.9 6.7 11.3 11.2 19.6 10.8 11.9-.5 21.3-10.5 20.8-22.5S35.9 4.9 23.9 5.4h-.5C12.2 8.4 4.2 18.8 4.6 30.8c.1 2.5.6 4.9 1.4 7.1z"/><path class="st5" d="M44.6 25C45 35.5 38.4 44.6 29 47.9c9.7-2.4 16.7-11.4 16.3-21.8 0-.5-.1-1-.1-1.5-.3-.4-.5-.8-.8-1.1.1.4.1 1 .2 1.5z"/><path class="st2" d="M59.4 52.7c.2.3.3.6.3.9 1.3-1.7 2.5-3.5 3.4-5.2 0 0-.1-.1-.1-.2 0-.5-.3-1.2-.9-2-.9 1.9-2 3.7-3.2 5.3.3.5.4.9.5 1.2z"/></svg>