<svg id="Layer_1" xmlns="http://www.w3.org/2000/svg" viewBox="262.7 358 86.6 76.8"><style>.st0{fill:#CCCBCA;} .st1{fill:#E6E5E5;} .st2{fill:#404B5B;} .st3{fill:#FFFFFF;} .st4{fill:#70C599;} .st5{fill:#343D4A;}</style><path class="st0" d="M290.9 421.6h23.5V432h-23.5z"/><path class="st1" d="M285.3 432h34.8v2.8h-34.8z"/><path class="st2" d="M262.7 412.2v-51.4c0-.7.3-1.4.8-2 .6-.6 1.3-.8 2-.8h74.4c.7 0 1.4.3 2 .8.5.6.8 1.3.8 2v51.4h-80z"/><path class="st3" d="M267.9 363.2h69.7V407h-69.7z"/><path class="st4" d="M309.9 385.1c-.2 0-.4.1-.5.3-.1.2 0 .4.1.5l4.8 4.8c.1.1.2.1.4.1.1 0 .3-.1.4-.1l4.8-4.8c.1-.1.2-.4.1-.5-.1-.2-.3-.3-.5-.3h-9.6zM295.5 385.1c.2 0 .4-.1.5-.3.1-.2 0-.4-.1-.5l-4.8-4.8c-.1-.1-.2-.1-.4-.1-.1 0-.3.1-.4.1l-4.8 4.8c-.1.1-.2.4-.1.5.1.2.3.3.5.3h9.6z"/><path class="st4" d="M317 385.1h-4.8c0-5.3-4.3-9.6-9.6-9.6-2.6 0-5 1-6.8 2.8l-3.4-3.4c2.7-2.7 6.3-4.2 10.1-4.2 8.1.1 14.5 6.5 14.5 14.4zM302.7 399.5c-7.9 0-14.3-6.4-14.3-14.3h4.8c0 5.3 4.3 9.6 9.6 9.6 2.6 0 5-1 6.8-2.8l3.4 3.4c-2.9 2.6-6.5 4.1-10.3 4.1z"/><path class="st1" d="M342.7 418.8c0 .7-.3 1.4-.8 2-.6.6-1.3.8-2 .8h-74.4c-.7 0-1.4-.3-2-.8-.6-.6-.8-1.3-.8-2v-6.6h80v6.6z"/><path class="st2" d="M346.3 391.2h-17.6c-1.7 0-3 1.4-3 3v37.5c0 1.7 1.4 3 3 3h17.6c1.7 0 3-1.4 3-3v-37.5c.1-1.6-1.3-3-3-3z"/><path class="st3" d="M327.4 397.8h20.3v30.4h-20.3z"/><path class="st5" d="M335.7 432.2c-.3 0-.6-.3-.6-.6v-.2c0-.3.3-.6.6-.6h3.7c.3 0 .6.3.6.6v.2c0 .3-.3.6-.6.6h-3.7z"/><g><path class="st5" d="M338.3 394.5c0 .5-.4.8-.8.8-.5 0-.8-.4-.8-.8 0-.5.4-.8.8-.8.5 0 .8.4.8.8z"/><circle class="st2" cx="337.5" cy="394.5" r=".3"/></g><g><path class="st4" d="M340.6 414.1c-.1 0-.1 0-.2.1v.2l1.8 1.8.1.1c.1 0 .1 0 .1-.1l1.8-1.8c.1-.1.1-.1 0-.2 0-.1-.1-.1-.2-.1h-3.4zM335.2 414.1c.1 0 .1 0 .2-.1v-.2l-1.8-1.8-.1-.1c-.1 0-.1 0-.1.1l-1.8 1.8c-.1.1-.1.1 0 .2 0 .1.1.1.2.1h3.4z"/><path class="st4" d="M343.2 414.1h-1.8c0-2-1.6-3.6-3.6-3.6-1 0-1.9.4-2.5 1.1l-1.3-1.3c1-1 2.4-1.6 3.8-1.6 3 0 5.4 2.4 5.4 5.4zM337.9 419.4c-3 0-5.4-2.4-5.4-5.4h1.8c0 2 1.6 3.6 3.6 3.6 1 0 1.9-.4 2.5-1.1l1.3 1.3c-1 1.1-2.4 1.6-3.8 1.6z"/></g></svg>