<svg id="Layer_1" xmlns="http://www.w3.org/2000/svg" viewBox="0 0 66.7 52.8"><style>.st0{fill:#48505A;} .st1{fill:#31373E;} .st2{opacity:0.3;fill:#E6E8EB;}</style><path class="st0" d="M.4 39.3s34.2-22.8 37.2-24.2c3-1.3 5.3-2 13.4.1 8.1 2.1 14.2 3 14.2 3s2.7.7.5 2.4C64 22 61.9 22.5 60.9 22c-.9-.5-10.7-4.4-12.2-4.7-1.5-.3-6.3-2.2-10-.8-3.7 1.4-35 26.2-35 26.2L.4 39.3z"/><path class="st1" d="M.5 38.9s34.2-22.8 37.2-24.2c3-1.3 5.3-2 13.4.1 8.1 2.1 14.2 3 14.2 3s2.7.7.5 2.4c-1.7 1.4-3.8 1.9-4.8 1.4-.9-.5-10.7-4.4-12.2-4.7-1.5-.3-6.3-2.2-10-.8-3.7 1.4-35 26.2-35 26.2L.5 38.9z"/><path class="st0" d="M60.4.6s-34.9 21.8-37.3 24c-2.4 2.2-4 4-5.4 12.3-1.5 8.2-3.2 14.1-3.2 14.1s-.5 2.8 2 1.5c2-1 3.3-2.7 3.3-3.7 0-1.1.4-11.5.8-13s.6-6.6 3.4-9.4c2.8-2.8 38.3-21.1 38.3-21.1L60.4.6z"/><path class="st1" d="M60 .5s-34.9 21.8-37.3 24c-2.4 2.2-4 4-5.4 12.3-1.4 8.3-3.1 14.2-3.1 14.2s-.5 2.8 2 1.5c2-1 3.3-2.7 3.3-3.7 0-1.1.4-11.5.8-13.1.4-1.5.6-6.6 3.4-9.4C26.3 23.4 61.9 5 61.9 5L60 .5z"/><path class="st0" d="M60.5.4s-8.7 3.9-15 8.6c-4.7 3.4-5.4 4.7-6.9 7-1.2 1.8-2.5 4.9-4.2 6.4-.6.6-1.1.9-1.4 1.2-.4.2-.9.5-1.7.8-2.1.9-5.5.8-7.6 1.2-2.7.5-4.2.6-9.2 3.5C7.7 33 .5 39.3.5 39.3c-.4.4.3 1.2.3 1.2s1.3 2 1.7 2.5c.3.5 1.1.4 3.4.5 2.2.1 5.3 4.8 9.3 6.7 4 1.9 9.4.3 13.1-2 3.7-2.4 6-5.8 6.2-9 .1-2.7-.8-7.8-.7-9.3 0-1.1.8-2.1 1.5-2.6s2-.8 3-.3c1.4.6 5.6 3.5 8.2 4.5 3 1.2 7.1.4 10.8-2 3.7-2.4 7.3-6.7 7.2-11.1-.1-4.4-3.1-9.1-2.3-11.2.8-2.1 1.2-2.8.9-3.3-.3-.5-1.6-2.5-1.6-2.5s-.6-1.2-1-1zM32.1 41.3c-1.4 4.2-8 7.5-11.8 8-4.4.6-8.3-3.3-10.8-5.9-2.5-2.7-2.6-5.6-.6-7.8 2.2-2.3 5.9-4.6 5.9-4.6 1.6-1 3.4-2 6.5-3 6.2-2 8.6 1.4 9.4 2.8 1 1.2 2.9 5.9 1.4 10.5zm28.5-30.9c1.4 3.4 3.3 8.5 1 12.3-2 3.2-7.8 7.9-12.2 7.4-4.9-.5-8.3-4.2-9.1-5.5-.8-1.3-3-4.9 1.4-9.7 2.2-2.4 3.9-3.7 5.4-4.7 0 0 3.6-2.4 6.6-3.5 2.9-1.1 5.6.3 6.9 3.7z"/><path class="st0" d="M60.1 0s-8.7 3.9-15 8.6c-4.7 3.4-5.4 4.7-6.9 7-1.2 1.8-2.5 4.9-4.2 6.4-.6.6-1.1.9-1.4 1.2-.4.2-.9.5-1.7.8-2.1.9-5.5.8-7.6 1.2-2.7.5-4.2.6-9.2 3.5C7.3 32.6.1 38.9.1 38.9c-.4.4.3 1.2.3 1.2s1.3 2 1.7 2.5c.3.5 1.1.4 3.4.5 2.2.1 5.3 4.8 9.3 6.7 4 1.9 9.4.3 13.1-2 3.7-2.4 6-5.8 6.2-9 .1-2.7-.8-7.8-.7-9.3 0-1.1.8-2.1 1.5-2.6s2-.8 3-.3c1.4.6 5.6 3.5 8.2 4.5 3 1.2 7.1.4 10.8-2 3.7-2.4 7.3-6.7 7.2-11.1-.1-4.4-3.1-9.1-2.3-11.2.8-2.1 1.2-2.8.9-3.3C62.3 2.8 61 .8 61 .8s-.4-1-.9-.8zM31.7 41c-1.4 4.2-8 7.5-11.8 8-4.4.6-8.3-3.3-10.8-5.9-2.5-2.7-2.6-5.6-.6-7.8 2.2-2.3 5.9-4.6 5.9-4.6 1.6-1 3.4-2 6.5-3 6.2-2 8.6 1.4 9.4 2.8 1 1.2 2.9 5.8 1.4 10.5zm28.6-31c1.4 3.4 3.3 8.5 1 12.3-2 3.2-7.8 7.9-12.2 7.4-4.9-.5-8.3-4.2-9.1-5.5-.8-1.3-3-4.9 1.4-9.7 2.2-2.4 3.9-3.7 5.4-4.7 0 0 3.6-2.4 6.6-3.5 2.8-1 5.5.3 6.9 3.7z"/><path class="st1" d="M60.2.2s-8.7 3.9-15 8.6c-4.7 3.4-5.4 4.7-6.9 7-1.2 1.8-2.5 4.9-4.2 6.4-.6.6-1.1.9-1.4 1.2-.4.2-.9.5-1.7.8-2.1.9-5.5.8-7.6 1.2-2.7.5-4.2.6-9.2 3.5C7.4 32.7.2 39 .2 39c-.4.4.3 1.2.3 1.2s1.3 2 1.7 2.5c.3.5 1.1.4 3.4.5 2.2.1 5.3 4.8 9.3 6.7 4 1.9 9.4.3 13.1-2 3.7-2.4 6-5.8 6.2-9 .1-2.7-.8-7.8-.7-9.3 0-1.1.8-2.1 1.5-2.6s2-.8 3-.3c1.4.6 5.6 3.5 8.2 4.5 3 1.2 7.1.4 10.8-2 3.7-2.4 7.3-6.7 7.2-11.1-.1-4.4-3.1-9.1-2.3-11.2.8-2.1 1.2-2.8.9-3.3-.4-.5-1.7-2.6-1.7-2.6s-.4-1-.9-.8zm-28.3 41c-1.4 4.2-8 7.5-11.8 8-4.4.6-8.3-3.3-10.8-5.9-2.5-2.7-2.6-5.6-.6-7.8 2.2-2.3 5.9-4.6 5.9-4.6 1.6-1 3.4-2 6.5-3 6.2-2 8.6 1.4 9.4 2.8.9 1.2 2.9 5.8 1.4 10.5zm28.5-31c1.4 3.4 3.3 8.5 1 12.3-2 3.2-7.8 7.9-12.2 7.4-4.9-.5-8.3-4.2-9.1-5.5-.8-1.3-3-4.9 1.4-9.7 2.2-2.4 3.9-3.7 5.4-4.7 0 0 3.6-2.4 6.6-3.5 2.8-1 5.5.4 6.9 3.7z"/><path class="st2" d="M31.9 41.2c-1.4 4.2-8 7.5-11.8 8-4.4.6-8.3-3.3-10.8-5.9-2.5-2.7-2.6-5.6-.6-7.8 2.2-2.3 5.9-4.6 5.9-4.6 1.6-1 3.4-2 6.5-3 6.2-2 8.6 1.4 9.4 2.8.9 1.2 2.9 5.8 1.4 10.5zm28.5-31c1.4 3.4 3.3 8.5 1 12.3-2 3.2-7.8 7.9-12.2 7.4-4.9-.5-8.3-4.2-9.1-5.5-.8-1.3-3-4.9 1.4-9.7 2.2-2.4 3.9-3.7 5.4-4.7 0 0 3.6-2.4 6.6-3.5 2.8-1 5.5.4 6.9 3.7z"/><path class="st2" d="M17 48.9l1.8-20.2c-1.7.7-3 1.5-4.1 2.1 0 0-.9.5-2.1 1.4l-1.1 13.2c1.5 1.5 3.4 2.9 5.5 3.5zm2.3.4l1.9-21.4c-.6.2-1.1.4-1.6.5l-1.8 20.8c.5 0 1 .1 1.5.1zM46.9 10c-.8.6-1.7 1.2-2.7 2.1l-1.3 15.2c1.5 1.1 3.4 2.2 5.7 2.6l1.9-22c-2 1-3.6 2.1-3.6 2.1zm3.9 19.9l2-23.2c-.5.2-1.1.5-1.6.7l-2 22.5c.6.1 1.1.1 1.6 0z"/></svg>