<?xml version="1.0" encoding="UTF-8"?><!DOCTYPE svg PUBLIC "-//W3C//DTD SVG 1.1//EN" "http://www.w3.org/Graphics/SVG/1.1/DTD/svg11.dtd"><svg xmlns="http://www.w3.org/2000/svg"><symbol id="logo" viewBox="0 0 168 37.4"><path d="M34.8 6.9c0-.4.3-.8.8-.8h1.6c-.2-.4-.3-.7-.6-1h-4.5c-.4 0-.8-.3-.8-.8 0-.4.3-.8.8-.8h3.3C33.3 1.3 30.1 0 25.9 0h-12c-1.5 0-2.8 1.1-3.1 2.6H7.2c-.4 0-.8.3-.8.8 0 .4.3.8.8.8h3.3l-.2.9H8.8c-.5 0-.8.3-.8.7 0 .4.3.8.8.8h1.4l-.5 2.5H7.2c-.4 0-.8.3-.8.8 0 .4.3.8.8.8h2.2l-.3 1.7H4.7c-.4 0-.8.3-.8.8 0 .4.3.8.8.8h4.1l-.3 1.6h-.6c-.4 0-.8.3-.8.8 0 .4.3.8.8.8h.3l-.8 4.6h-.2c-.4 0-.8.3-.8.8 0 .4.3.8.8.8L6 29.9H4c-.4 0-.8.3-.8.8 0 .4.3.8.8.8h1.7l-.2.9H.8c-.4 0-.8.3-.8.8 0 .4.3.8.8.8h4.5L5 35.6c-.2 1 .6 1.8 1.5 1.8h6c1.1 0 2.1-.8 2.3-1.9l.4-2.1h-4.8c-.4 0-.8-.3-.8-.8 0-.4.3-.8.8-.8h5.1l.2-1.2h-.9c-.4 0-.8-.3-.8-.8 0-.4.3-.8.8-.8H16l.2-1.1h-2.5c-.4 0-.8-.3-.8-.8 0-.4.3-.8.8-.8h8.7c4.6 0 8.1-1.2 10.7-3.3h-3.3c-.4 0-.8-.3-.8-.8 0-.4.3-.8.8-.8h4.9c.2-.3.5-.5.7-.8h-1.8c-.4 0-.8-.3-.8-.8 0-.4.3-.8.8-.8h2.8c.7-1.3 1.3-2.8 1.6-4.4.2-1.1.3-2.2.3-3.3 0-1.4-.2-2.7-.5-3.9h-2.2c-.4.2-.8-.1-.8-.5zM12.2 27.2c0 .4-.3.8-.8.8-.4 0-.8-.3-.8-.8 0-.4.3-.8.8-.8s.8.4.8.8zm16.1-13.4c-.6 2.8-2.8 4.9-6.5 4.9h-5.1c-.4 0-.8-.3-.8-.8 0-.4.3-.8.8-.8h1.4v-.3l1.5-8.5c.1-.7.8-1.3 1.5-1.3h2.3c2.6 0 5.1 1.4 5.1 4.9 0 .7-.1 1.4-.2 1.9zM30 5.1h-1.8c-.4 0-.8-.3-.8-.8 0-.4.3-.8.8-.8H30c.4 0 .8.3.8.8-.1.4-.4.8-.8.8zM32.1 20c0 .4-.3.8-.8.8-.4 0-.8-.3-.8-.8 0-.4.3-.8.8-.8s.8.3.8.8z"/><path d="M1.1 17H6c.4 0 .8-.3.8-.8 0-.4-.3-.8-.8-.8H1.1c-.4 0-.8.3-.8.8.1.5.4.8.8.8zm2.2 6.1h1.8c.4 0 .8-.3.8-.8 0-.4-.3-.8-.8-.8H3.3c-.4 0-.8.3-.8.8.1.5.4.8.8.8zM5.1 4.2c.5 0 .8-.3.8-.8 0-.4-.3-.8-.8-.8-.4 0-.8.3-.8.8 0 .4.4.8.8.8zM1.9 29.9c-.5 0-.8.3-.8.8 0 .4.3.8.8.8.4 0 .8-.3.8-.8-.1-.5-.4-.8-.8-.8zm54-15.2c-.3 1.5-1.2 3.1-2.5 4-1.5 1-2.9 1.1-4.6 1.1h-3.1c-.1 0-.3.1-.3.2L44 27.1c0 .1-.2.2-.3.2h-.1c-.2 0-.3-.2-.3-.4l3.2-17.1c0-.1.2-.2.3-.2h3.9c1.5 0 3.1 0 4.2 1.1.8.7 1.1 1.9 1.1 3 0 .3 0 .6-.1 1zm-5.4-4.4h-3.2c-.1 0-.3.1-.3.2l-1.5 8.1c0 .2.1.4.3.4h3c1.6 0 2.9-.1 4.2-1 1.1-.7 1.9-2.1 2.1-3.4 0-.3.1-.6.1-.9.1-2.9-2.1-3.4-4.7-3.4zm15.5 17c-.2 0-.4-.2-.3-.4l.5-2.8c-1.5 2.2-3.9 3.5-6.5 3.5-3.2 0-5.6-2.1-5.6-5.4 0-4.3 3.8-7.9 8-7.9 2.2 0 4.8 1.2 5.2 3.5l.6-3c0-.1.2-.2.3-.2.2 0 .3.2.3.4l-2.2 12c0 .2-.1.3-.3.3zM62 15c-3.8 0-7.2 3.3-7.2 7.2 0 3.1 2.1 4.9 5 4.9 3.8 0 7.2-3.4 7.2-7.2 0-3-2.2-4.9-5-4.9zm14 .3h-2.7c-.1 0-.3.1-.3.2L70.9 27c0 .1-.2.2-.3.2-.2 0-.3-.2-.3-.4l2.1-11.3c0-.2-.1-.4-.3-.4H70c-.2 0-.3-.2-.3-.4 0-.1.2-.2.3-.2h2.3c.1 0 .3-.1.3-.2l.8-4.5c0-.1.2-.2.3-.2.2 0 .3.2.3.4l-.8 4.3c0 .2.1.4.3.4H76c.2 0 .3.2.3.4 0 .1-.1.2-.3.2z"/><path d="M81.5 15.3h-2.7c-.1 0-.3.1-.3.2L76.4 27c0 .1-.2.2-.3.2-.2 0-.3-.2-.3-.4l2.1-11.3c0-.2-.1-.4-.3-.4h-2.1c-.2 0-.3-.2-.3-.4 0-.1.2-.2.3-.2h2.3c.1 0 .3-.1.3-.2l.8-4.5c0-.1.2-.2.3-.2.2 0 .3.2.3.4l-.8 4.3c0 .2.1.4.3.4h2.5c.2 0 .3.2.3.4-.1.1-.2.2-.3.2z"/><path d="M92.7 21.1H80.6c-.1 0-.3.1-.3.3 0 .3-.1.6-.1.9 0 2.8 2.2 4.8 5 4.8 2.4 0 4.6-1.3 5.9-3.2.1-.1.1-.1.2-.1.2 0 .4.3.2.5-1.5 2.2-3.9 3.5-6.6 3.5-3.2 0-5.6-2-5.6-5.3 0-.5 0-.9.1-1.3.7-3.7 4.1-6.7 7.9-6.7 3.2 0 5.5 2.1 5.5 5.3 0 .4 0 .8-.1 1.1.3.1.2.2 0 .2zM87.6 15c-3.1 0-6 2.1-7 5.1-.1.2.1.4.3.4h11.2c.2 0 .3-.1.3-.3v-.4c.1-2.8-2.1-4.8-4.8-4.8zm12.9-.2c0 .1-.1.2-.3.2-1 .1-1.9.3-2.7.9-.3.2-.5.5-.8.7-1.1 1.1-1.5 2.4-1.8 3.9l-1.2 6.6c0 .1-.2.2-.3.2-.2 0-.3-.2-.3-.4l2.2-12c0-.1.2-.2.3-.2.2 0 .3.2.3.4l-.3 1.9c1.2-1.7 2.6-2.4 4.5-2.6.2 0 .4.2.4.4zm12.1 5.8l-1.2 6.4c0 .1-.2.2-.3.2-.2 0-.3-.2-.3-.4l1.2-6.3c.1-.6.2-1.1.2-1.7 0-2.7-1.6-3.9-4.2-3.9-3.2 0-5.5 1.9-6.1 5.1l-1.3 7c0 .1-.2.2-.3.2-.2 0-.3-.2-.3-.4l2.2-12c0-.1.2-.2.3-.2.2 0 .3.2.3.4l-.4 2.1c1.1-1.8 3.5-2.7 5.5-2.7 3 0 4.9 1.3 4.9 4.4 0 .6-.1 1.2-.2 1.8zm12-1.4c-2.1 1.6-4 1.4-6.4 1.4-.1 0-.3.1-.3.2l-1.1 6.2c0 .1-.2.2-.3.2h-2.7c-.2 0-.3-.2-.3-.4l3.2-17.1c0-.1.2-.2.3-.2h4.7c1.7 0 3.2.1 4.4 1.4.7.8 1.1 1.8 1.1 2.8 0 2.2-.9 4.3-2.6 5.5zm-4-6.5h-.9c-.1 0-.3.1-.3.2l-.8 4.2c0 .2.1.4.3.4h.7c1.8 0 3.7-.3 4.2-2.4v-.5c0-1.8-1.9-1.9-3.2-1.9zm18 14.6h-2.3c-.2 0-.3-.2-.3-.4l.1-.4c.1-.3-.3-.5-.5-.3-1.2.9-2.9 1.5-4.4 1.5-3.2 0-5.3-2.4-5.3-5.5 0-4.4 3.5-8.6 8.1-8.6 1.4 0 2.6.5 3.5 1.5.1.2.4.5.5.6l.3-1.4c0-.1.2-.2.3-.2h2.3c.2 0 .3.2.3.4l-2.3 12.6c0 .1-.1.2-.3.2zm-2.1-10c-4.5-3-9.4 3-6.4 6.9l.1.1c4.6 2.2 8.4-3 6.4-6.8 0-.1 0-.1-.1-.2zm15.4 1.2c-.1 0-.2-.1-.3-.2-.5-1.2-1.3-1.7-2.6-1.7-3.4 0-5.8 4.1-4.1 7.2l.1.1c2.6 1.8 4.5.7 5.8-.8.1-.1.1-.1.2-.1h2.9c.2 0 .4.3.3.5-1.6 2.5-4.2 4.3-7.2 4.3-3.3 0-5.8-2.4-5.8-5.8 0-4.4 4-8.4 8.4-8.4 2.9 0 5.1 1.7 5.7 4.5 0 .2-.1.4-.3.4h-3.1zm10.6 2.3l3.7 6.1c.1.2 0 .5-.3.5h-3.3c-.1 0-.2-.1-.3-.2l-3.3-6-1.1 6c0 .1-.2.2-.3.2H155c-.2 0-.3-.2-.3-.4L158 9.9c0-.1.2-.2.3-.2h2.6c.2 0 .3.2.3.4l-1.9 10.3 5.3-6.1c.1-.1.1-.1.2-.1h2.8c.3 0 .4.3.2.5l-5.4 5.8s0 .2.1.3z"/></symbol><symbol id="pp-logomark" viewBox="0 0 76.8 75"><style>.st0{fill:#FFFFFF;}</style><path class="st0" d="M69.7 13.7c0-.9.7-1.6 1.5-1.6h3.3c-.3-.7-.7-1.4-1.1-2h-9.1c-.9 0-1.5-.7-1.5-1.5 0-.9.7-1.5 1.5-1.5H71c-4.3-4.5-10.8-7-19.2-7h-24c-3 0-5.6 2.2-6.2 5.2h-7.3c-.9 0-1.5.7-1.5 1.5 0 .9.7 1.5 1.5 1.5H21l-.3 1.8h-3.3c-.9 0-1.5.7-1.5 1.5 0 .9.7 1.5 1.5 1.5h2.7l-.9 4.9h-5c-.9 0-1.5.7-1.5 1.5 0 .9.7 1.5 1.5 1.5h4.4l-.6 3.4H9.5c-.9 0-1.5.7-1.5 1.5 0 .9.7 1.5 1.5 1.5h8.2l-.6 3.6h-1.2c-.9 0-1.5.7-1.5 1.5 0 .9.7 1.5 1.5 1.5h.7L15 43.2h-.5c-.9 0-1.5.7-1.5 1.5 0 .9.7 1.5 1.5 1.5L12 59.9H8c-.9 0-1.5.7-1.5 1.5-.1.9.6 1.6 1.5 1.6h3.5l-.3 1.8H1.5c-.9 0-1.5.7-1.5 1.5 0 .9.7 1.5 1.5 1.5h9l-.5 3.5c-.3 1.9 1.1 3.7 3.1 3.7h12c2.3 0 4.2-1.6 4.6-3.9l.7-4.2h-9.6c-.9 0-1.5-.7-1.5-1.5 0-.9.7-1.5 1.5-1.5h9.8c.1 0 .2 0 .4.1l.4-2.4h-1.7c-.9 0-1.5-.7-1.5-1.5 0-.9.7-1.5 1.5-1.5H32l.4-2.3h-5.1c-.9 0-1.5-.7-1.5-1.5 0-.9.7-1.5 1.5-1.5h17.6c9.2 0 16.3-2.5 21.5-6.6h-6.6c-.9 0-1.5-.7-1.5-1.5 0-.9.7-1.5 1.5-1.5h9.9c.5-.5.9-1.1 1.3-1.6h-3.6c-.9 0-1.5-.7-1.5-1.5 0-.9.7-1.5 1.5-1.5H73c1.5-2.7 2.5-5.6 3.2-8.8.4-2.1.6-4.4.6-6.6 0-2.8-.4-5.4-1.1-7.8h-4.4c-.9-.6-1.6-1.3-1.6-2.2zM24.5 54.5c0 .9-.7 1.5-1.5 1.5h-.1c-.9 0-1.5-.7-1.5-1.5 0-.9.7-1.5 1.5-1.5h.1c.8-.1 1.5.6 1.5 1.5zm32.1-26.8c-1.3 5.5-5.5 9.8-13 9.8H33.4c-.9 0-1.5-.7-1.5-1.5 0-.9.7-1.5 1.5-1.5h2.9v-.6l3-16.9c.3-1.5 1.6-2.6 3.1-2.6H47c5.3 0 10.2 2.8 10.2 9.8-.1 1-.2 2.4-.6 3.5zM60 10.1h-3.5c-.9 0-1.5-.7-1.5-1.5 0-.9.7-1.5 1.5-1.5H60c.9 0 1.5.7 1.5 1.5.1.8-.6 1.5-1.5 1.5zM64.4 40c0 .9-.7 1.5-1.5 1.5h-.1c-.9 0-1.5-.7-1.5-1.5 0-.9.7-1.5 1.5-1.5h.1c.8 0 1.5.7 1.5 1.5z"/><path class="st0" d="M2.3 34.1h9.8c.9 0 1.5-.7 1.5-1.5 0-.9-.7-1.5-1.5-1.5H2.3c-.9 0-1.5.7-1.5 1.5-.1.8.6 1.5 1.5 1.5zm4.4 12.2h3.5c.9 0 1.5-.7 1.5-1.5 0-.9-.7-1.5-1.5-1.5H6.7c-.9 0-1.5.7-1.5 1.5-.1.8.6 1.5 1.5 1.5zm3.5-38h.1c.9 0 1.5-.7 1.5-1.5 0-.9-.7-1.5-1.5-1.5h-.1c-.9 0-1.5.7-1.5 1.5s.7 1.5 1.5 1.5zM3.7 59.9h-.1c-.9 0-1.5.7-1.5 1.5 0 .9.7 1.5 1.5 1.5h.1c.9 0 1.5-.7 1.5-1.5.1-.8-.6-1.5-1.5-1.5z"/></symbol><symbol id="slalom-logo" viewBox="0 0 216 56.1"><style>.st0{fill:#0097CF;}</style><path class="st0" d="M49.8 55h-6.3c-2.4 0-4.3-1.9-4.3-4.3V0h10.6v55zm43 0h-6.1c-2.4 0-4.3-1.9-4.3-4.3v-.1C79.8 53.8 76 56 70.6 56c-10.9 0-19.1-8.9-19.1-20.8s8.2-20.8 19.1-20.8c5.4 0 9.2 2.2 11.8 5.4v-4.4h10.4V55zM62.4 35.3c0 6 4 10.9 10.2 10.9 6.1 0 10.2-4.6 10.2-10.9 0-6.2-4.1-10.9-10.2-10.9-6.2 0-10.2 4.9-10.2 10.9zM106.3 55H100c-2.4 0-4.3-1.9-4.3-4.3V0h10.6v55zm44.3-19.7c0 11.9-9.1 20.8-21.4 20.8-12.3 0-21.3-8.9-21.3-20.8s9-20.8 21.3-20.8 21.4 8.9 21.4 20.8zm-31.8 0c0 6.4 4.5 10.9 10.5 10.9s10.5-4.5 10.5-10.9-4.5-10.9-10.5-10.9c-6.1 0-10.5 4.5-10.5 10.9zm97.2-5.4V55h-6.3c-2.4 0-4.3-1.9-4.3-4.3V33.3c0-5.7-2.9-8.8-7.7-8.8-4.6 0-8.4 3-8.4 8.9V55H183c-2.4 0-4.3-1.9-4.3-4.3V33.3c0-5.7-2.9-8.8-7.7-8.8-4.6 0-8.4 3-8.4 8.9V55h-6.3c-2.4 0-4.3-1.9-4.3-4.3V15.6h10.3v4.6c2.8-4.2 7.1-5.7 11.6-5.7 5.7 0 10.4 2.6 13 6.8 3.1-5 8.2-6.8 13.4-6.8 9.4 0 15.7 6.2 15.7 15.4zM34.6 23.6c-1 2.1-3.4 3-5.5 2.2-3.1-1.2-7.1-2.3-11-2.4-4-.1-5.9 1.3-5.9 3.5 0 2.3 2.2 2.9 5.8 3.5l4.8.6c8.6 1 15 5.1 14.9 12.5-.1 8.2-6.8 12.9-20.1 12.7-5.4-.1-12-1.6-17.5-5L3.7 43c2.6 1.4 8 4.2 13.9 4.3 5.9.1 8.9-.9 9-3.8 0-2.8-3.8-3-8.9-3.7l-2.3-.3C3.8 37.6.9 33.2 1 26.9c.1-8.2 7.9-12.4 17.2-12.3 7.1.1 13.1 2 18.3 4.6l-1.9 4.4z"/></symbol></svg>