<svg id="Layer_1" xmlns="http://www.w3.org/2000/svg" viewBox="0 0 138.7 193.6"><style>.st0{fill:#E2C59C;} .st1{fill:#48505A;} .st2{fill:#31373E;} .st3{fill:#5A6374;} .st4{fill:#0CBACC;} .st5{fill:#2CC0D5;} .st6{fill:#EAD7B9;} .st7{fill:#272D61;} .st8{fill:#2460AD;}</style><path class="st0" d="M83.7 54.9l-18.1 7c-6.1 2.4-9.2 9.3-6.8 15.4l.2.5-10.3 23.4L78 114.1l5.7-12.8 15.6-6.1c6.1-2.4 9.2-9.3 6.8-15.4l-7-18.1c-2.3-6.1-9.2-9.2-15.4-6.8z"/><path class="st0" d="M120.3 79.6c-.1 2.4-2.1 4.2-4.5 4.1l-31.7-1.3c-2.4-.1-4.2-2.1-4.1-4.5.1-2.4 2.1-4.2 4.5-4.1l31.7 1.3c2.3.1 4.2 2.1 4.1 4.5zm5.9-12.5c-.1 2.4-2.1 4.2-4.5 4.1L90 69.9c-2.4-.1-4.2-2.1-4.1-4.5.1-2.4 2.1-4.2 4.5-4.1l31.7 1.3c2.3.1 4.1 2.1 4.1 4.5zm12.5-20.8c-.1 2.4-2.1 4.2-4.5 4.1l-31.7-1.3c-2.4-.1-4.2-2.1-4.1-4.5.1-2.4 2.1-4.2 4.5-4.1l31.7 1.3c2.4.1 4.2 2.1 4.1 4.5z"/><path class="st1" d="M111.5 89.2c-.9 2.8-4 4.3-6.8 3.3L74.4 82.2c-2.8-.9-4.3-4-3.3-6.8L95.5 3.6c.9-2.8 4-4.3 6.8-3.3l30.3 10.3c2.8.9 4.3 4 3.3 6.8l-24.4 71.8z"/><path class="st2" d="M75.5 81.7c-2.8-.9-4.3-4-3.3-6.8L96 4.7c.9-2.8 4-4.3 6.8-3.3l28.7 9.8c2.8.9 4.3 4 3.3 6.8L111 88.1c-.9 2.8-4 4.3-6.8 3.3l-28.7-9.7z"/><path class="st3" d="M110.9 8.8c-.1.4-.5.6-.9.5-.4-.1-.6-.5-.5-.9.1-.4.5-.6.9-.4.4 0 .6.4.5.8zm6-.6c-.1.2-.3.4-.6.3-.2-.1-.4-.3-.3-.6.1-.2.3-.4.6-.3.3.1.4.4.3.6zm1.5 3.1c-.1.2-.3.3-.4.2l-4.7-1.6c-.2-.1-.3-.3-.2-.4.1-.2.3-.3.4-.2l4.7 1.6c.1 0 .2.2.2.4zM93.9 84c-.1.3-.5.5-.8.4l-4.3-1.5c-.3-.1-.5-.5-.4-.8l.4-1.2c.1-.3.5-.5.8-.4l4.3 1.5c.3.1.5.5.4.8l-.4 1.2z"/><path class="st2" d="M93.6 11.6l-1-.4 1.1-3.1 1 .3zm-2.8 8.2l-.9-.4 1.8-5.2.9.3zM88.7 26l-1-.3 1.7-5 1 .3z"/><path class="st4" d="M96.515 8.65l35.505 12.066-21.4 62.963-35.504-12.07z"/><path class="st5" d="M89.6 28.9l-6.9 20.4 38.8-32.1-12.6-4.3zM78.9 60.6l49.5-41.1-4.8-1.6-42.1 34.9z"/><path class="st6" d="M78.5 43L74 47l-5 4.4h.1l-4.8 4.4-16.2 37L62 98.9c4.9-2.5 9.4-7.2 12.1-13.5 3.6-8.1 3.3-16.6-.1-22.5l5.7-6.3 1.7.8c4.4 2 9.5.1 11.5-4.3l1.2-2.6c.1-.1.1-.2.1-.3l-15.8-7.3.1.1zm52.9 13.5c-.1 2.4-2.1 4.2-4.5 4.1l-3.2-.3c-2.4-.1-4.2-2.1-4.1-4.5.1-2.4 2.1-4.2 4.5-4.1l3.2.3c2.4.1 4.2 2.2 4.1 4.5zm-11.6 22c-.1 2.4-2.1 4.2-4.5 4.1l-3.2-.3c-2.4-.1-4.2-2.1-4.1-4.5.1-2.4 2.1-4.2 4.5-4.1l3.2.3c2.4.1 4.2 2.1 4.1 4.5zm6.2-11.8c-.1 2.4-2.1 4.2-4.5 4.1l-3.2-.3c-2.4-.1-4.2-2.1-4.1-4.5.1-2.4 2.1-4.2 4.5-4.1l3.2.3c2.4.2 4.2 2.2 4.1 4.5z"/><path class="st7" d="M0 166.4L48.1 91l42.7 27.3-48.1 75.3"/><path class="st8" d="M23.6 181.4l48.1-75.3 19.1 12.2-48.1 75.3"/></svg>