<svg id="Layer_1" xmlns="http://www.w3.org/2000/svg" xmlns:xlink="http://www.w3.org/1999/xlink" viewBox="0 0 309 171.3"><style>.st0{clip-path:url(#SVGID_2_);fill:#E6E8EB;} .st1{clip-path:url(#SVGID_2_);fill:#31373E;} .st2{clip-path:url(#SVGID_2_);fill:#CED6D7;} .st3{clip-path:url(#SVGID_2_);} .st4{fill:#31373E;} .st5{clip-path:url(#SVGID_2_);fill:#EEF0F5;} .st6{clip-path:url(#SVGID_2_);fill:#F5F8FD;} .st7{fill:#49505A;} .st8{fill:#B7BEC0;} .st9{fill:#F5876E;} .st10{fill:#2CC0D5;} .st11{clip-path:url(#SVGID_2_);fill:#B7BEC0;} .st12{clip-path:url(#SVGID_2_);fill:#969B9D;} .st13{clip-path:url(#SVGID_2_);fill:#E2C59C;} .st14{clip-path:url(#SVGID_2_);fill:#272D61;}</style><defs><path id="SVGID_1_" d="M-569.1 171.3v-404.1h1000v404.1"/></defs><clipPath id="SVGID_2_"><use xlink:href="#SVGID_1_" overflow="visible"/></clipPath><path class="st0" d="M293.6 1.7l-32.2 2.7L45.8 22.7l-32.2 2.7c-5.6.5-9.6 3.7-8.5 5.2l32.6 45.1c1.1 1.6 7.2 2.4 12.2 2l1.1-.1 214.7-18.2 1.1-.1c5-.4 10.9-2.3 11.7-4l24-49.3c.8-1.7-3.3-4.8-8.9-4.3zM289.8 218.8c.4 5-3.3 9.3-8.2 9.8l-219 18.5c-5 .4-9.3-3.3-9.8-8.2L40.3 91.5c-.4-5 3.3-9.3 8.2-9.8l218.9-18.6c5-.4 9.3 3.3 9.8 8.2l12.6 147.5z"/><path class="st1" d="M293.7 3.8l-32.2 2.7L46 24.8l-32.2 2.7c-5.6.5-9.3 2.1-8.2 3.7l33.5 46.5c1.1 1.6 6 2.5 10.9 2.1l1.1-.1 214.7-18.2 1.1-.1c5-.4 9.6-2.2 10.4-3.9L302.5 6c.8-1.7-3.1-2.7-8.8-2.2z"/><path class="st2" d="M270.5 151.3c.5 5.4-3.6 10.2-9 10.6L71.4 178.1c-5.4.5-10.2-3.6-10.6-9l-5.7-66.6c-.5-5.4 3.6-10.2 9-10.6l190.1-16.1c5.4-.5 10.2 3.6 10.6 9l5.7 66.5z"/><g class="st3"><path class="st4" d="M73.4 100.8c.1 1.1-.7 2-1.8 2.1l-8.8.7c-1.1.1-2-.7-2.1-1.8l-.3-3.3c-.1-1.1.7-2 1.8-2.1l8.8-.7c1.1-.1 2 .7 2.1 1.8l.3 3.3zM87.7 99.6c.1 1.1-.7 2-1.8 2.1l-8.8.7c-1.1.1-2-.7-2.1-1.8l-.3-3.3c-.1-1.1.7-2 1.8-2.1l8.8-.7c1.1-.1 2 .7 2.1 1.8l.3 3.3zM102 98.4c.1 1.1-.7 2-1.8 2.1l-8.8.7c-1.1.1-2-.7-2.1-1.8l-.3-3.2c-.1-1.1.7-2 1.8-2.1l8.8-.7c1.1-.1 2 .7 2.1 1.8l.3 3.2zM116.3 97.2c.1 1.1-.7 2-1.8 2.1l-8.8.7c-1.1.1-2-.7-2.1-1.8l-.3-3.3c-.1-1.1.7-2 1.8-2.1l8.8-.7c1.1-.1 2 .7 2.1 1.8l.3 3.3zM130.6 96c.1 1.1-.7 2-1.8 2.1l-8.8.7c-1.1.1-2-.7-2.1-1.8l-.3-3.3c-.1-1.1.7-2 1.8-2.1l8.8-.7c1.1-.1 2 .7 2.1 1.8l.3 3.3zM144.9 94.8c.1 1.1-.7 2-1.8 2.1l-8.8.7c-1.1.1-2-.7-2.1-1.8l-.3-3.3c-.1-1.1.7-2 1.8-2.1l8.8-.7c1.1-.1 2 .7 2.1 1.8l.3 3.3zM159.2 93.5c.1 1.1-.7 2-1.8 2.1l-8.8.7c-1.1.1-2-.7-2.1-1.8l-.3-3.3c-.1-1.1.7-2 1.8-2.1l8.8-.7c1.1-.1 2 .7 2.1 1.8l.3 3.3zM173.5 92.3c.1 1.1-.7 2-1.8 2.1l-8.8.7c-1.1.1-2-.7-2.1-1.8l-.3-3.3c-.1-1.1.7-2 1.8-2.1l8.8-.7c1.1-.1 2 .7 2.1 1.8l.3 3.3zM187.8 91.1c.1 1.1-.7 2-1.8 2.1l-8.8.7c-1.1.1-2-.7-2.1-1.8l-.3-3.3c-.1-1.1.7-2 1.8-2.1l8.8-.7c1.1-.1 2 .7 2.1 1.8l.3 3.3zM202.1 89.9c.1 1.1-.7 2-1.8 2.1l-8.8.7c-1.1.1-2-.7-2.1-1.8l-.3-3.3c-.1-1.1.7-2 1.8-2.1l8.8-.7c1.1-.1 2 .7 2.1 1.8l.3 3.3zM216.4 88.7c.1 1.1-.7 2-1.8 2.1l-8.8.7c-1.1.1-2-.7-2.1-1.8l-.3-3.3c-.1-1.1.7-2 1.8-2.1l8.8-.7c1.1-.1 2 .7 2.1 1.8l.3 3.3zM230.7 87.5c.1 1.1-.7 2-1.8 2.1l-8.8.7c-1.1.1-2-.7-2.1-1.8l-.3-3.3c-.1-1.1.7-2 1.8-2.1l8.8-.7c1.1-.1 2 .7 2.1 1.8l.3 3.3zM245 86.3c.1 1.1-.7 2-1.8 2.1l-8.8.7c-1.1.1-2-.7-2.1-1.8L232 84c-.1-1.1.7-2 1.8-2.1l8.8-.7c1.1-.1 2 .7 2.1 1.8l.3 3.3zM259.3 85.1c.1 1.1-.7 2-1.8 2.1l-8.8.7c-1.1.1-2-.7-2.1-1.8l-.3-3.3c-.1-1.1.7-2 1.8-2.1l8.8-.7c1.1-.1 2 .7 2.1 1.8l.3 3.3zM73.9 114.5c.1 1.1-.7 2-1.8 2.1l-8.1.7c-1.1.1-2-.7-2.1-1.8l-.7-7.8c-.1-1.1.7-2 1.8-2.1l8.1-.7c1.1-.1 2 .7 2.1 1.8l.7 7.8zM87.7 113.3c.1 1.1-.7 2-1.8 2.1l-8.1.7c-1.1.1-2-.7-2.1-1.8l-.7-7.8c-.1-1.1.7-2 1.8-2.1l8.1-.7c1.1-.1 2 .7 2.1 1.8l.7 7.8zM101.5 112.2c.1 1.1-.7 2-1.8 2.1l-8.1.7c-1.1.1-2-.7-2.1-1.8l-.7-7.8c-.1-1.1.7-2 1.8-2.1l8.1-.7c1.1-.1 2 .7 2.1 1.8l.7 7.8zM115.4 111c.1 1.1-.7 2-1.8 2.1l-8.1.7c-1.1.1-2-.7-2.1-1.8l-.7-7.8c-.1-1.1.7-2 1.8-2.1l8.1-.7c1.1-.1 2 .7 2.1 1.8l.7 7.8zM129.2 109.8c.1 1.1-.7 2-1.8 2.1l-8.1.7c-1.1.1-2-.7-2.1-1.8l-.7-7.8c-.1-1.1.7-2 1.8-2.1l8.1-.7c1.1-.1 2 .7 2.1 1.8l.7 7.8zM143 108.6c.1 1.1-.7 2-1.8 2.1l-8.1.7c-1.1.1-2-.7-2.1-1.8l-.7-7.8c-.1-1.1.7-2 1.8-2.1l8.1-.7c1.1-.1 2 .7 2.1 1.8l.7 7.8zM156.9 107.5c.1 1.1-.7 2-1.8 2.1l-8.1.7c-1.1.1-2-.7-2.1-1.8l-.7-7.8c-.1-1.1.7-2 1.8-2.1l8.1-.7c1.1-.1 2 .7 2.1 1.8l.7 7.8zM170.7 106.3c.1 1.1-.7 2-1.8 2.1l-8.1.7c-1.1.1-2-.7-2.1-1.8l-.7-7.8c-.1-1.1.7-2 1.8-2.1l8.1-.7c1.1-.1 2 .7 2.1 1.8l.7 7.8zM184.5 105.1c.1 1.1-.7 2-1.8 2.1l-8.1.7c-1.1.1-2-.7-2.1-1.8l-.7-7.8c-.1-1.1.7-2 1.8-2.1l8.1-.7c1.1-.1 2 .7 2.1 1.8l.7 7.8zM198.3 103.9c.1 1.1-.7 2-1.8 2.1l-8.1.7c-1.1.1-2-.7-2.1-1.8l-.7-7.8c-.1-1.1.7-2 1.8-2.1l8.1-.7c1.1-.1 2 .7 2.1 1.8l.7 7.8zM212.2 102.8c.1 1.1-.7 2-1.8 2.1l-8.1.7c-1.1.1-2-.7-2.1-1.8l-.7-7.8c-.1-1.1.7-2 1.8-2.1l8.1-.7c1.1-.1 2 .7 2.1 1.8l.7 7.8zM226 101.6c.1 1.1-.7 2-1.8 2.1l-8.1.7c-1.1.1-2-.7-2.1-1.8l-.7-7.8c-.1-1.1.7-2 1.8-2.1l8.1-.7c1.1-.1 2 .7 2.1 1.8l.7 7.8zM239.8 100.4c.1 1.1-.7 2-1.8 2.1l-8.1.7c-1.1.1-2-.7-2.1-1.8l-.7-7.8c-.1-1.1.7-2 1.8-2.1l8.1-.7c1.1-.1 2 .7 2.1 1.8l.7 7.8zM260.5 98.7c.1 1.1-.7 2-1.8 2.1l-14.9 1.3c-1.1.1-2-.7-2.1-1.8l-.7-7.8c-.1-1.1.7-2 1.8-2.1l14.9-1.3c1.1-.1 2 .7 2.1 1.8l.7 7.8zM82.2 127.1c.1 1.1-.7 2-1.8 2.1l-15.3 1.3c-1.1.1-2-.7-2.1-1.8l-.7-7.8c-.1-1.1.7-2 1.8-2.1l15.3-1.3c1.1-.1 2 .7 2.1 1.8l.7 7.8zM95.8 126c.1 1.1-.7 2-1.8 2.1l-8.1.7c-1.1.1-2-.7-2.1-1.8l-.7-7.8c-.1-1.1.7-2 1.8-2.1l8.1-.7c1.1-.1 2 .7 2.1 1.8l.7 7.8zM109.6 124.8c.1 1.1-.7 2-1.8 2.1l-8.1.7c-1.1.1-2-.7-2.1-1.8l-.7-7.8c-.1-1.1.7-2 1.8-2.1l8.1-.7c1.1-.1 2 .7 2.1 1.8l.7 7.8zM123.4 123.6c.1 1.1-.7 2-1.8 2.1l-8.1.7c-1.1.1-2-.7-2.1-1.8l-.7-7.8c-.1-1.1.7-2 1.8-2.1l8.1-.7c1.1-.1 2 .7 2.1 1.8l.7 7.8zM137.2 122.4c.1 1.1-.7 2-1.8 2.1l-8.1.7c-1.1.1-2-.7-2.1-1.8l-.7-7.8c-.1-1.1.7-2 1.8-2.1l8.1-.7c1.1-.1 2 .7 2.1 1.8l.7 7.8zM151 121.3c.1 1.1-.7 2-1.8 2.1l-8.1.7c-1.1.1-2-.7-2.1-1.8l-.7-7.8c-.1-1.1.7-2 1.8-2.1l8.1-.7c1.1-.1 2 .7 2.1 1.8l.7 7.8zM164.8 120.1c.1 1.1-.7 2-1.8 2.1l-8.1.7c-1.1.1-2-.7-2.1-1.8l-.7-7.8c-.1-1.1.7-2 1.8-2.1l8.1-.7c1.1-.1 2 .7 2.1 1.8l.7 7.8zM178.6 118.9c.1 1.1-.7 2-1.8 2.1l-8.1.7c-1.1.1-2-.7-2.1-1.8l-.7-7.8c-.1-1.1.7-2 1.8-2.1l8.1-.7c1.1-.1 2 .7 2.1 1.8l.7 7.8zM192.4 117.8c.1 1.1-.7 2-1.8 2.1l-8.1.7c-1.1.1-2-.7-2.1-1.8l-.7-7.8c-.1-1.1.7-2 1.8-2.1l8.1-.7c1.1-.1 2 .7 2.1 1.8l.7 7.8zM206.2 116.6c.1 1.1-.7 2-1.8 2.1l-8.1.7c-1.1.1-2-.7-2.1-1.8l-.7-7.8c-.1-1.1.7-2 1.8-2.1l8.1-.7c1.1-.1 2 .7 2.1 1.8l.7 7.8zM233.9 114.2c.1 1.1-.7 2-1.8 2.1l-8.1.7c-1.1.1-2-.7-2.1-1.8l-.7-7.8c-.1-1.1.7-2 1.8-2.1l8.1-.7c1.1-.1 2 .7 2.1 1.8l.7 7.8zM220 115.4c.1 1.1-.7 2-1.8 2.1l-8.1.7c-1.1.1-2-.7-2.1-1.8l-.7-7.8c-.1-1.1.7-2 1.8-2.1l8.1-.7c1.1-.1 2 .7 2.1 1.8l.7 7.8zM247.7 113.1c.1 1.1-.7 2-1.8 2.1l-8.1.7c-1.1.1-2-.7-2.1-1.8l-.7-7.8c-.1-1.1.7-2 1.8-2.1l8.1-.7c1.1-.1 2 .7 2.1 1.8l.7 7.8zM86.7 140.6c.1 1.1-.7 2-1.8 2.1l-18.7 1.6c-1.1.1-2-.7-2.1-1.8l-.7-7.8c-.1-1.1.7-2 1.8-2.1l18.7-1.6c1.1-.1 2 .7 2.1 1.8l.7 7.8zM100.8 139.4c.1 1.1-.7 2-1.8 2.1l-8.1.7c-1.1.1-2-.7-2.1-1.8l-.7-7.8c-.1-1.1.7-2 1.8-2.1l8.1-.7c1.1-.1 2 .7 2.1 1.8l.7 7.8zM114.6 138.2c.1 1.1-.7 2-1.8 2.1l-8.1.7c-1.1.1-2-.7-2.1-1.8l-.7-7.8c-.1-1.1.7-2 1.8-2.1l8.1-.7c1.1-.1 2 .7 2.1 1.8l.7 7.8zM128.3 137c.1 1.1-.7 2-1.8 2.1l-8.1.7c-1.1.1-2-.7-2.1-1.8l-.7-7.8c-.1-1.1.7-2 1.8-2.1l8.1-.7c1.1-.1 2 .7 2.1 1.8l.7 7.8zM142.1 135.9c.1 1.1-.7 2-1.8 2.1l-8.1.7c-1.1.1-2-.7-2.1-1.8l-.7-7.8c-.1-1.1.7-2 1.8-2.1l8.1-.7c1.1-.1 2 .7 2.1 1.8l.7 7.8zM155.9 134.7c.1 1.1-.7 2-1.8 2.1l-8.1.7c-1.1.1-2-.7-2.1-1.8l-.7-7.8c-.1-1.1.7-2 1.8-2.1l8.1-.7c1.1-.1 2 .7 2.1 1.8l.7 7.8zM169.6 133.5c.1 1.1-.7 2-1.8 2.1l-8.1.7c-1.1.1-2-.7-2.1-1.8l-.7-7.8c-.1-1.1.7-2 1.8-2.1l8.1-.7c1.1-.1 2 .7 2.1 1.8l.7 7.8zM183.4 132.4c.1 1.1-.7 2-1.8 2.1l-8.1.7c-1.1.1-2-.7-2.1-1.8l-.7-7.8c-.1-1.1.7-2 1.8-2.1l8.1-.7c1.1-.1 2 .7 2.1 1.8l.7 7.8zM197.1 131.2c.1 1.1-.7 2-1.8 2.1l-8.1.7c-1.1.1-2-.7-2.1-1.8l-.7-7.8c-.1-1.1.7-2 1.8-2.1l8.1-.7c1.1-.1 2 .7 2.1 1.8l.7 7.8zM210.9 130c.1 1.1-.7 2-1.8 2.1l-8.1.7c-1.1.1-2-.7-2.1-1.8l-.7-7.8c-.1-1.1.7-2 1.8-2.1l8.1-.7c1.1-.1 2 .7 2.1 1.8l.7 7.8zM224.7 128.9c.1 1.1-.7 2-1.8 2.1l-8.1.7c-1.1.1-2-.7-2.1-1.8l-.7-7.8c-.1-1.1.7-2 1.8-2.1l8.1-.7c1.1-.1 2 .7 2.1 1.8l.7 7.8zM238.4 127.7c.1 1.1-.7 2-1.8 2.1l-8.1.7c-1.1.1-2-.7-2.1-1.8l-.7-7.8c-.1-1.1.7-2 1.8-2.1l8.1-.7c1.1-.1 2 .7 2.1 1.8l.7 7.8zM252.2 126.5c.1 1.1-.7 2-1.8 2.1l-8.1.7c-1.1.1-2-.7-2.1-1.8l-.7-7.8c-.1-1.1.7-2 1.8-2.1l8.1-.7c1.1-.1 2 .7 2.1 1.8l.7 7.8z"/><path class="st4" d="M250.6 103c-1.1.1-1.9 1-1.8 2.1l.7 7.8c.1 1.1 1 1.9 2 1.8 1-.1 1.9.7 2 1.8l.8 9.8c.1 1.1 1 1.9 2.1 1.8l4.5-.4c1.1-.1 1.9-1 1.8-2.1l-1.8-21.5c-.1-1.1-1-1.9-2.1-1.8l-8.2.7zM80.3 155c.1 1.1-.7 2-1.8 2.1l-11.1.9c-1.1.1-2-.7-2.1-1.8l-.7-7.8c-.1-1.1.7-2 1.8-2.1l11.1-.9c1.1-.1 2 .7 2.1 1.8l.7 7.8zM94.8 153.7c.1 1.1-.7 2-1.8 2.1l-8.1.7c-1.1.1-2-.7-2.1-1.8l-.7-7.8c-.1-1.1.7-2 1.8-2.1l8.1-.7c1.1-.1 2 .7 2.1 1.8l.7 7.8zM108.5 152.6c.1 1.1-.7 2-1.8 2.1l-8.1.7c-1.1.1-2-.7-2.1-1.8l-.7-7.8c-.1-1.1.7-2 1.8-2.1l8.1-.7c1.1-.1 2 .7 2.1 1.8l.7 7.8zM122.3 151.4c.1 1.1-.7 2-1.8 2.1l-8.1.7c-1.1.1-2-.7-2.1-1.8l-.7-7.8c-.1-1.1.7-2 1.8-2.1l8.1-.7c1.1-.1 2 .7 2.1 1.8l.7 7.8zM136.1 150.2c.1 1.1-.7 2-1.8 2.1l-8.1.7c-1.1.1-2-.7-2.1-1.8l-.7-7.8c-.1-1.1.7-2 1.8-2.1l8.1-.7c1.1-.1 2 .7 2.1 1.8l.7 7.8zM149.9 149.1c.1 1.1-.7 2-1.8 2.1l-8.1.7c-1.1.1-2-.7-2.1-1.8l-.7-7.8c-.1-1.1.7-2 1.8-2.1l8.1-.7c1.1-.1 2 .7 2.1 1.8l.7 7.8zM163.7 147.9c.1 1.1-.7 2-1.8 2.1l-8.1.7c-1.1.1-2-.7-2.1-1.8l-.7-7.8c-.1-1.1.7-2 1.8-2.1l8.1-.7c1.1-.1 2 .7 2.1 1.8l.7 7.8zM177.5 146.7c.1 1.1-.7 2-1.8 2.1l-8.1.7c-1.1.1-2-.7-2.1-1.8l-.7-7.8c-.1-1.1.7-2 1.8-2.1l8.1-.7c1.1-.1 2 .7 2.1 1.8l.7 7.8zM191.3 145.6c.1 1.1-.7 2-1.8 2.1l-8.1.7c-1.1.1-2-.7-2.1-1.8l-.7-7.8c-.1-1.1.7-2 1.8-2.1l8.1-.7c1.1-.1 2 .7 2.1 1.8l.7 7.8zM205.1 144.4c.1 1.1-.7 2-1.8 2.1l-8.1.7c-1.1.1-2-.7-2.1-1.8l-.7-7.8c-.1-1.1.7-2 1.8-2.1l8.1-.7c1.1-.1 2 .7 2.1 1.8l.7 7.8zM218.9 143.2c.1 1.1-.7 2-1.8 2.1l-8.1.7c-1.1.1-2-.7-2.1-1.8l-.7-7.8c-.1-1.1.7-2 1.8-2.1l8.1-.7c1.1-.1 2 .7 2.1 1.8l.7 7.8zM232.7 142c.1 1.1-.7 2-1.8 2.1l-8.1.7c-1.1.1-2-.7-2.1-1.8l-.7-7.8c-.1-1.1.7-2 1.8-2.1l8.1-.7c1.1-.1 2 .7 2.1 1.8l.7 7.8zM263.9 139.4c.1 1.1-.7 2-1.8 2.1l-25.3 2.1c-1.1.1-2-.7-2.1-1.8l-.7-7.8c-.1-1.1.7-2 1.8-2.1l25.3-2.1c1.1-.1 2 .7 2.1 1.8l.7 7.8zM78.6 170c.1 1.1-.7 2-1.8 2.1l-8.1.7c-1.1.1-2-.7-2.1-1.8l-.8-9c-.1-1.1.7-2 1.8-2.1l8.1-.7c1.1-.1 2 .7 2.1 1.8l.8 9zM92.4 168.9c.1 1.1-.7 2-1.8 2.1l-8.1.7c-1.1.1-2-.7-2.1-1.8l-.8-9c-.1-1.1.7-2 1.8-2.1l8.1-.7c1.1-.1 2 .7 2.1 1.8l.8 9zM106.2 167.7c.1 1.1-.7 2-1.8 2.1l-8.1.7c-1.1.1-2-.7-2.1-1.8l-.8-9c-.1-1.1.7-2 1.8-2.1l8.1-.7c1.1-.1 2 .7 2.1 1.8l.8 9zM123.8 166.2c.1 1.1-.7 2-1.8 2.1l-11.8 1c-1.1.1-2-.7-2.1-1.8l-.8-9c-.1-1.1.7-2 1.8-2.1l11.8-1c1.1-.1 2 .7 2.1 1.8l.8 9zM210 158.9c.1 1.1-.7 2-1.8 2.1l-11.8 1c-1.1.1-2-.7-2.1-1.8l-.8-9c-.1-1.1.7-2 1.8-2.1l11.8-1c1.1-.1 2 .7 2.1 1.8l.8 9zM192.7 160.3c.1 1.1-.7 2-1.8 2.1l-63.3 5.4c-1.1.1-2-.7-2.1-1.8l-.8-9c-.1-1.1.7-2 1.8-2.1l63.3-5.4c1.1-.1 2 .7 2.1 1.8l.8 9zM223.6 157.7c.1 1.1-.7 2-1.8 2.1l-8.1.7c-1.1.1-2-.7-2.1-1.8l-.8-9c-.1-1.1.7-2 1.8-2.1l8.1-.7c1.1-.1 2 .7 2.1 1.8l.8 9zM237.5 156.5c.1 1.1-.7 2-1.8 2.1l-8.1.7c-1.1.1-2-.7-2.1-1.8l-.2-2.7c-.1-1.1.7-2 1.8-2.1l8.1-.7c1.1-.1 2 .7 2.1 1.8l.2 2.7zM251.4 155.4c.1 1.1-.7 2-1.8 2.1l-8.1.7c-1.1.1-2-.7-2.1-1.8l-.8-9c-.1-1.1.7-2 1.8-2.1l8.1-.7c1.1-.1 2 .7 2.1 1.8l.8 9zM265.2 154.2c.1 1.1-.7 2-1.8 2.1l-8.1.7c-1.1.1-2-.7-2.1-1.8l-.2-2.7c-.1-1.1.7-2 1.8-2.1l8.1-.7c1.1-.1 2 .7 2.1 1.8l.2 2.7z"/></g><path class="st2" d="M210 225c.2 2.2-1.4 4.1-3.6 4.2l-69 5.9c-2.2.2-4.1-1.4-4.2-3.6l-4.1-48.8c-.2-2.2 1.4-4.1 3.6-4.2l69-5.9c2.2-.2 4.1 1.4 4.2 3.6L210 225z"/><path class="st5" d="M248.5 12.6L60.6 28.5l-35.6 3 26.4 41.8 12.9-1.1 187.9-15.9 12.9-1.1 19-45.6z"/><path class="st1" d="M242.9 62.4c0-.3-.3-.5-.6-.5L73.5 76.3c-.3 0-.5.3-.5.6l.7 8.6c0 .3.3.5.6.5l168.9-14.3c.3 0 .5-.3.5-.6l-.8-8.7z"/><path class="st6" d="M186.1 61.9l28.4-46.4-33 2.8-28.4 46.4zM207.4 60.1l28.4-46.4-12.3 1-28.4 46.4z"/><g class="st3"><path class="st7" d="M235.8 13.7l3.3-5.3-12.4 1.1-3.2 5.2zM195.1 61.1l-4.1 6.8 12.3-1.1 4.1-6.7z"/></g><g class="st3"><path class="st7" d="M214.5 15.5l3.2-5.3-32.9 2.8-3.3 5.3zM153.1 64.7l-4.1 6.7 32.9-2.8 4.2-6.7z"/></g><g class="st3"><path class="st8" d="M87.3 44.5l-15.5 1.4-.5-1.1 15.6-1.4zM117.6 41.7l-15.5 1.4-.3-1.1 15.6-1.4zM150.5 38.7l-15.4 1.4-.2-1.1 15.6-1.4zM240.3 30.6L224.8 32l.3-1.2 15.6-1.4z"/><path class="st9" d="M69.1 46.7l-6 .5-1-2.1 6-.5z"/><path class="st7" d="M99.2 43.9l-5.9.6-.7-2.1 6-.6z"/><path class="st10" d="M131.9 40.9l-5.9.6-.4-2.1 6-.6z"/></g><path class="st11" d="M247 21.4L59 38.5l-.5-1.1 189-17.2zM150.6 32.2l-90.7 8.3-.5-1.1 91.2-8.3z"/><path class="st12" d="M179.4 23.7L57.2 34.8l-.8-1.7 123.1-11.3z"/><g class="st3"><path class="st7" d="M91.5 57.9l-22.6 2c-2.2-4.6 6.5-9.4 19.5-10.5l3.1 8.5z"/><path class="st10" d="M91.5 57.9l-3-8.5c13-1.2 24.5 1.7 25.6 6.5 1.1 4.7-7.6 9.5-19.5 10.5-11.9 1.1-23.4-1.8-25.6-6.5l22.5-2z"/><path class="st9" d="M91.5 57.9l11.3-8.1c-4.5-.7-9.1-.8-14.3-.4l3 8.5z"/></g><g class="st3"><path class="st9" d="M224.3 45.8l-22 4.7c-2.9-4.4 4.7-10 17.4-12.7 2.6-.5 4.8-.9 7.4-1.1l-2.8 9.1z"/><path class="st10" d="M224.3 45.8l2.7-9c13-1.2 21.9 2 19.8 7-2.1 5-13.4 10-25.3 11.1-9.5.9-17-.8-19.3-4.3l22.1-4.8z"/><g><path class="st4" d="M224.3 45.8l20.3-7c-3.6-2-9.8-2.7-17.6-2l-2.7 9z"/></g></g><g class="st3"><path class="st7" d="M157.9 51.9L144 46c4.1-1.5 8.5-2.4 13.7-2.9l.2 8.8z"/><path class="st10" d="M157.9 51.9l-.2-8.8c13-1.2 23.2 1.8 22.7 6.7-.4 4.9-10.4 9.8-22.4 10.8-11.9 1.1-22.1-1.9-22.7-6.7-.3-2.9 2.7-5.6 8.7-7.9l13.9 5.9z"/><g><path class="st9" d="M157.9 51.9l21.2.8c4.3-5-1.9-9.4-14.1-9.8-2.5-.1-4.7 0-7.3.2l.2 8.8z"/></g></g><path class="st13" d="M106.8 118.4l-.3 30.8h-2.1l.2-20.4c0-2.4-1.9-4.4-4.3-4.4s-4.4 1.9-4.4 4.3l-.2 20.5c-.7 0-1.3.1-2 .3l.1-10.4c0-2.4-1.9-4.4-4.3-4.4s-4.4 1.9-4.4 4.3l-.3 32.2-.1 7.6c0 3.7 1.7 7 4.5 9.1l-.2 24.4 27.9.3.2-22.4c2-.5 3.7-1.4 5.2-2.7v.3l14.6-14.3.1-10.7.1-8.1h-2.4c-3.6 0-6.5 2.8-6.5 6.4l-.1 8.7-2 2 .1-10.9v-.5l.3-31.3c0-2.4-1.9-4.4-4.3-4.4s-4.4 1.9-4.4 4.3l-.2 20.8c-.7-.2-1.4-.3-2.1-.3l.3-30.9c0-2.4-1.9-4.4-4.3-4.4-2.7-.1-4.7 1.8-4.7 4.2zM220.7 96l4.6 30.5 2.1-.3-3.1-20.2c-.4-2.4 1.3-4.6 3.7-5 2.4-.4 4.6 1.3 5 3.7l3.1 20.2c.7-.1 1.3-.1 2 0l-1.6-10.2c-.4-2.4 1.3-4.6 3.7-5 2.4-.4 4.6 1.3 5 3.7l4.8 31.8 1.2 7.6c.6 3.7-.7 7.2-3.1 9.7l3.7 24.1-27.6 4.2-3.4-22.2c-2-.2-3.9-.9-5.5-2v.3l-16.5-12.1-1.6-10.6-1.2-8c.1 0 .2 0 .3-.1l2.1-.3c3.5-.5 6.8 1.9 7.4 5.4l1.3 8.6 2.3 1.7-1.6-10.8v-.5l-4.7-31c-.4-2.4 1.3-4.6 3.7-5 2.4-.4 4.6 1.3 5 3.7l3.1 20.5c.7-.3 1.3-.5 2-.6l-4.6-30.5c-.4-2.4 1.3-4.6 3.7-5 2.1-.3 4.3 1.3 4.7 3.7z"/></svg>