<svg id="Layer_1" xmlns="http://www.w3.org/2000/svg" viewBox="0 0 76.8 75"><style>.st0{fill:#FFFFFF;}</style><path class="st0" d="M69.7 13.7c0-.9.7-1.6 1.5-1.6h3.3c-.3-.7-.7-1.4-1.1-2h-9.1c-.9 0-1.5-.7-1.5-1.5 0-.9.7-1.5 1.5-1.5H71c-4.3-4.5-10.8-7-19.2-7h-24c-3 0-5.6 2.2-6.2 5.2h-7.3c-.9 0-1.5.7-1.5 1.5 0 .9.7 1.5 1.5 1.5H21l-.3 1.8h-3.3c-.9 0-1.5.7-1.5 1.5 0 .9.7 1.5 1.5 1.5h2.7l-.9 4.9h-5c-.9 0-1.5.7-1.5 1.5 0 .9.7 1.5 1.5 1.5h4.4l-.6 3.4H9.5c-.9 0-1.5.7-1.5 1.5 0 .9.7 1.5 1.5 1.5h8.2l-.6 3.6h-1.2c-.9 0-1.5.7-1.5 1.5 0 .9.7 1.5 1.5 1.5h.7L15 43.2h-.5c-.9 0-1.5.7-1.5 1.5 0 .9.7 1.5 1.5 1.5L12 59.9H8c-.9 0-1.5.7-1.5 1.5-.1.9.6 1.6 1.5 1.6h3.5l-.3 1.8H1.5c-.9 0-1.5.7-1.5 1.5 0 .9.7 1.5 1.5 1.5h9l-.5 3.5c-.3 1.9 1.1 3.7 3.1 3.7h12c2.3 0 4.2-1.6 4.6-3.9l.7-4.2h-9.6c-.9 0-1.5-.7-1.5-1.5 0-.9.7-1.5 1.5-1.5h9.8c.1 0 .2 0 .4.1l.4-2.4h-1.7c-.9 0-1.5-.7-1.5-1.5 0-.9.7-1.5 1.5-1.5H32l.4-2.3h-5.1c-.9 0-1.5-.7-1.5-1.5 0-.9.7-1.5 1.5-1.5H44.9c9.2 0 16.3-2.5 21.5-6.6h-6.6c-.9 0-1.5-.7-1.5-1.5 0-.9.7-1.5 1.5-1.5h9.9c.5-.5.9-1.1 1.3-1.6h-3.6c-.9 0-1.5-.7-1.5-1.5 0-.9.7-1.5 1.5-1.5H73c1.5-2.7 2.5-5.6 3.2-8.8.4-2.1.6-4.4.6-6.6 0-2.8-.4-5.4-1.1-7.8h-4.4c-.9-.6-1.6-1.3-1.6-2.2zM24.5 54.5c0 .9-.7 1.5-1.5 1.5h-.1c-.9 0-1.5-.7-1.5-1.5 0-.9.7-1.5 1.5-1.5h.1c.8-.1 1.5.6 1.5 1.5zm32.1-26.8c-1.3 5.5-5.5 9.8-13 9.8h-.3-9.9c-.9 0-1.5-.7-1.5-1.5 0-.9.7-1.5 1.5-1.5h2.9v-.6l3-16.9c.3-1.5 1.6-2.6 3.1-2.6H47c5.3 0 10.2 2.8 10.2 9.8-.1 1-.2 2.4-.6 3.5zM60 10.1h-3.5c-.9 0-1.5-.7-1.5-1.5 0-.9.7-1.5 1.5-1.5H60c.9 0 1.5.7 1.5 1.5.1.8-.6 1.5-1.5 1.5zM64.4 40c0 .9-.7 1.5-1.5 1.5h-.1c-.9 0-1.5-.7-1.5-1.5 0-.9.7-1.5 1.5-1.5h.1c.8 0 1.5.7 1.5 1.5z"/><path class="st0" d="M2.3 34.1h9.8c.9 0 1.5-.7 1.5-1.5 0-.9-.7-1.5-1.5-1.5H2.3c-.9 0-1.5.7-1.5 1.5-.1.8.6 1.5 1.5 1.5zM6.7 46.3h3.5c.9 0 1.5-.7 1.5-1.5 0-.9-.7-1.5-1.5-1.5H6.7c-.9 0-1.5.7-1.5 1.5-.1.8.6 1.5 1.5 1.5zM10.2 8.3h.1c.9 0 1.5-.7 1.5-1.5 0-.9-.7-1.5-1.5-1.5h-.1c-.9 0-1.5.7-1.5 1.5s.7 1.5 1.5 1.5zM3.7 59.9h-.1c-.9 0-1.5.7-1.5 1.5 0 .9.7 1.5 1.5 1.5h.1c.9 0 1.5-.7 1.5-1.5.1-.8-.6-1.5-1.5-1.5z"/></svg>