<svg id="Layer_1" xmlns="http://www.w3.org/2000/svg" viewBox="0 0 100.7 168.1"><style>.st0{fill:#E2C59C;} .st1{fill:#A9E0F9;} .st2{fill:#EAD7B9;} .st3{fill:#70C599;}</style><path class="st0" d="M2.8 62.1c-2.7 2.7-2.7 7 0 9.7l3.8 3.8c2.7 2.7 7 2.7 9.7 0 2.7-2.7 2.7-7 0-9.7l-3.8-3.8c-2.6-2.7-7-2.7-9.7 0z"/><path class="st1" d="M2.2 96c-2.7 2.7-2.7 7 0 9.7l11.1 11.1c2.7 2.7 7 2.7 9.7 0 2.7-2.7 2.7-7 0-9.7L11.9 96c-2.7-2.7-7-2.7-9.7 0z"/><path class="st0" d="M2 79c-2.7 2.7-2.7 7 0 9.7l9 9c2.7 2.7 7 2.7 9.7 0 2.7-2.7 2.7-7 0-9.7l-9-9c-2.7-2.7-7-2.7-9.7 0z"/><path class="st2" d="M33.4 168.1v-41.4c0-4.5 5.4-8.2 12.1-8.2h19.7c6.7 0 12.1 3.6 12.1 8.2v41.4H33.4z"/><path class="st0" d="M71.7 105.5c6.4 6.4 6.4 16.7 0 23.1L53 147.3c-6.4 6.4-16.7 6.4-23.1 0l-18.8-18.7c-6.4-6.4-13.9-9.4-7.5-15.8l10.9-28c6.4-6.4 32-4.4 38.4 2l18.8 18.7z"/><path class="st2" d="M3 123.6l28.6 28.6s5.6 6.8 9.4 3.6c9.8-8.3 8.2-26.4-3-37.7-5.9-5.9-25.8-6.8-31.7 2L3 123.6z"/><path class="st0" d="M2.3 113c-2.7 2.7-2.7 7 0 9.7l3.8 3.8c2.7 2.7 7 2.7 9.7 0 2.7-2.7 2.7-7 0-9.7L12 113c-2.7-2.7-7-2.7-9.7 0z"/><path class="st3" d="M10.4 56.9c.5-1.6 2.2-2.5 3.8-2.1 1 .2 1.7.9 2.1 1.8 1.3 2.9 3.9 5.3 7.3 6.1 5.8 1.4 11.6-2.1 13-7.9 1.4-5.8-2.1-11.6-7.9-13-3.4-.8-6.8.1-9.3 2.1-.7.6-1.7.8-2.7.6-1.6-.4-2.7-2-2.4-3.6L20 16.8l23.9 5.8c1.6.3 3.2-.7 3.6-2.4.2-1 0-2-.6-2.7-2-2.5-2.9-5.9-2.1-9.3 1.4-5.8 7.2-9.3 13-7.9 5.8 1.4 9.3 7.2 7.9 13-.8 3.4-3.1 6-6.1 7.3-.9.4-1.5 1.1-1.8 2.1-.4 1.6.6 3.3 2.1 3.8l23.8 5.8-5.8 24c-.2 1.6.8 3.1 2.4 3.5 1 .2 2 0 2.7-.6 2.5-2 5.9-2.9 9.3-2.1 5.8 1.4 9.3 7.2 7.9 13-1.4 5.8-7.2 9.3-13 7.9-3.4-.8-6-3.1-7.3-6.1-.4-.9-1.1-1.5-2.1-1.8-1.6-.4-3.2.5-3.7 2l-5.8 24L4.5 80.7l5.9-23.8z"/><path class="st2" d="M73.2 85l-19 .6c-6.6.1-12-5.1-12.1-11.7l-.1-4v-.5l23.9-.4 7.3 16z"/><path class="st2" d="M53.9 76.7l7.2 21.6 15.5-5.2-10.5-23.9z"/><path class="st2" d="M76.6 148.4V92.9c-1.3-.3-2.7-.5-4.1-.5C58.9 92.5 48 107 48 124.8c0 9.3 3 17.7 7.8 23.6h20.8zM0 117.9c0 3.8 3.1 6.9 6.9 6.9h5.4c3.8 0 6.9-3.1 6.9-6.9 0-3.8-3.1-6.9-6.9-6.9H6.9c-3.8 0-6.9 3.1-6.9 6.9zm0-52.3c0 3.8 3.1 6.9 6.9 6.9h5.4c3.8 0 6.9-3.1 6.9-6.9 0-3.8-3.1-6.9-6.9-6.9H6.9c-3.8 0-6.9 3.1-6.9 6.9zm0 35.1c0 3.8 3.1 6.9 6.9 6.9h15.8c3.8 0 6.9-3.1 6.9-6.9 0-3.8-3.1-6.9-6.9-6.9H6.9c-3.8 0-6.9 3.1-6.9 6.9zm0-17.3c0 3.8 3.1 6.9 6.9 6.9h12.8c3.8 0 6.9-3.1 6.9-6.9 0-3.8-3.1-6.9-6.9-6.9H6.9c-3.8.1-6.9 3.2-6.9 6.9z"/></svg>