<svg id="Layer_1" xmlns="http://www.w3.org/2000/svg" viewBox="0 0 95.2 95.2"><style>.st0{fill:#C6DD76;}</style><path class="st0" d="M59.8 90.9c-1.6-.4-2.7-2-2.4-3.7.2-1 .8-1.8 1.6-2.2 2.8-1.5 5-4.3 5.6-7.7 1-5.9-2.9-11.4-8.8-12.5-5.9-1-11.4 2.9-12.5 8.8-.6 3.4.5 6.7 2.7 9.1.6.7.9 1.7.8 2.7-.3 1.7-1.8 2.8-3.5 2.6l-24.2-4.2 4.2-24.2c.2-1.7-1-3.2-2.6-3.5-1-.2-2 .1-2.7.8-2.4 2.2-5.7 3.3-9.1 2.7C3 58.6-.9 53 .1 47.1s6.6-9.8 12.5-8.8c3.4.6 6.2 2.7 7.7 5.6.5.8 1.2 1.5 2.2 1.6 1.7.3 3.2-.8 3.6-2.4l4.2-24.2 24.3 4.2c1.6.1 3.1-1 3.4-2.6.2-1-.1-2-.8-2.7-2.2-2.4-3.3-5.7-2.7-9.1 1-5.9 6.6-9.8 12.5-8.8s9.8 6.6 8.8 12.5c-.6 3.4-2.7 6.2-5.6 7.7-.8.5-1.5 1.2-1.6 2.2-.3 1.6.7 3.2 2.3 3.6l24.3 4.2-11.3 65.1-24.1-4.3z"/></svg>