<svg id="Layer_1" xmlns="http://www.w3.org/2000/svg" xmlns:xlink="http://www.w3.org/1999/xlink" viewBox="0 0 244.6 180.4"><style>.st0{clip-path:url(#SVGID_1_);fill:#E2C59C;} .st1{clip-path:url(#SVGID_1_);fill:#272D61;} .st2{clip-path:url(#SVGID_1_);fill:#EAD7B9;} .st3{clip-path:url(#SVGID_1_);} .st4{fill:#2CC0D5;} .st5{clip-path:url(#SVGID_1_);fill:#0CBACC;}</style><defs><path id="SVGID_3_" d="M-8.8-18.6h263v199h-263z"/></defs><clipPath id="SVGID_1_"><use xlink:href="#SVGID_3_" overflow="visible"/></clipPath><path class="st0" d="M183.8 45.1c-2.7 4.2-8.3 5.3-12.4 2.6l-30-15.1 14.6-3.8 29.6 13.5c-.1.1-.1.2-.2.3l-1.6 2.5z"/><path class="st0" d="M162.7 50.2c-3.2 3.8-8.9 4.2-12.6 1L125.6 37l15.2-4.8 24.1 15.5c-.1.1-.1.2-.2.3l-2 2.2z"/><path class="st1" d="M199.7 93.2l15.2-19.3c1.1-1.2 3-1.4 4.3-.4.8.6 1.2 1.6 1.2 2.5 0 3.2 1.4 6.4 4.1 8.6 4.7 3.7 11.5 2.9 15.1-1.8 3.7-4.7 2.9-11.5-1.8-15.1-2.7-2.1-6.2-2.7-9.3-2-.9.2-1.9 0-2.7-.6-1.3-1-1.6-2.9-.7-4.3l15.2-19.3-19.4-15.2c-1.2-1.1-1.3-3-.3-4.3.6-.8 1.6-1.2 2.5-1.2 3.2 0 6.4-1.4 8.6-4.1 3.7-4.7 2.9-11.5-1.8-15.1-4.7-3.7-11.5-2.9-15.1 1.8-2.1 2.7-2.7 6.2-2 9.3.2.9 0 1.9-.6 2.7-1 1.3-2.8 1.6-4.2.7L188.6.9 148 52.6"/><path class="st2" d="M175.5 30l-16.9-2-.5.1-19.7 6.2-12.6 1.8-33.3 36.2c-.7.6-1.4 1.3-1.9 2l-.5.8.1-.1c-.5.9-17.5 21.4-17.5 21.4l18.1 24.9 25.8-32.8 41.7-5.6 22-27c-.1-.1.2-.1.1-.2l-2.3-2c-3.7-3.2-9.3-2.9-12.6.7l-4.6 5.6c-4 4.9-11.3 5.7-16.2 1.7-2.2-1.8-3.6-4.3-4.1-7l.5-2.5 2-5.7 21.4-6h7"/><path class="st3 st4" d="M66.2 172.1c-13.1 17-20.2 36.7-21.5 56.6l-54.6 2.9c.9-32.5 11.7-65 33-92.7 1.6-2 3.1-4.2 4.7-6.1l53.5-69.3 43 33.2L70.9 166c-1.7 1.9-3.1 4-4.7 6.1z"/><path class="st5" d="M66.5 169c-.5.7-1 1.4-1.5 2-13.3 17.3-20.5 37.4-21.8 57.7L22 229.8c.6-26.5 9.4-53.1 26.9-75.7L104 82.8 122.1 97l-52.5 67.9c-1.1 1.3-2.1 2.8-3.1 4.1z"/><path class="st2" d="M192.6 43.3c-2.6 4.6-8.5 6.2-13.1 3.6l-21.3-11.3 17.2-5.5 18.9 10.1c-.1.1-.1.2-.2.4l-1.5 2.7z"/></svg>