<svg id="Layer_1" xmlns="http://www.w3.org/2000/svg" viewBox="0 0 98.7 66.9"><style>.st0{fill:#2460AD;} .st1{fill:#D9D8D7;}</style><path class="st0" d="M49.3 0c-9.7 0-17.5 7.9-17.5 17.5 0 9.7 7.8 17.5 17.5 17.5s17.5-7.8 17.5-17.5C66.9 7.9 59 0 49.3 0zm0 28.7c-6.1 0-11.1-5-11.1-11.1s5-11.1 11.1-11.1 11.1 5 11.1 11.1c.1 6.1-4.9 11.1-11.1 11.1z"/><path class="st1" d="M50.7 49.7H48v-2.5h2.7v2.5zm0-5.1H48v-2.5h2.7v2.5zm0-5.1H48V37h2.7v2.5z"/><circle class="st1" cx="49.3" cy="59.2" r="7.6"/><path class="st1" d="M31.3 37.6l-1.9-1.9 1.7-1.7 1.9 1.9-1.7 1.7zm3.3-3.4l-1.9-1.9 1.7-1.7 1.9 1.9-1.7 1.7zM29 45.4c-2.1 2.1-5.5 2.1-7.5 0-2.1-2.1-2.1-5.5 0-7.5 2.1-2.1 5.5-2.1 7.5 0 2.1 2.1 2.1 5.5 0 7.5zM67.4 37.6l-1.7-1.7 1.9-1.9 1.7 1.7-1.9 1.9zM64 34.2l-1.7-1.7 1.9-1.9 1.7 1.7-1.9 1.9zM77.2 37.9c2.1 2.1 2.1 5.5 0 7.5-2.1 2.1-5.5 2.1-7.5 0-2.1-2.1-2.1-5.5 0-7.5 2.1-2.1 5.5-2.1 7.5 0zM81.5 18.9H79v-2.7h2.5v2.7zm-5.1 0h-2.5v-2.7h2.5v2.7zm-5.1 0h-2.5v-2.7h2.5v2.7zM29.9 18.9h-2.5v-2.7h2.5v2.7zm-5.1 0h-2.5v-2.7h2.5v2.7zm-5.1 0h-2.5v-2.7h2.5v2.7zM91 9.9c4.2 0 7.6 3.4 7.6 7.6 0 4.2-3.4 7.6-7.6 7.6-4.2 0-7.6-3.4-7.6-7.6 0-4.2 3.4-7.6 7.6-7.6z"/><circle class="st1" cx="7.6" cy="17.5" r="7.6"/></svg>