<svg id="Layer_1" xmlns="http://www.w3.org/2000/svg" viewBox="0 0 120.8 216.1"><style>.st0{fill-rule:evenodd;clip-rule:evenodd;fill:#E6E8EB;}</style><path class="st0" d="M29.9 111.2c.3-.3.6-.8.9-1 6.7-2.6 13.5-4.5 20.7-5.1 9.7-.9 19.2.2 28.5 3.6 6.9 2.5 13 6.3 18.5 11.1 1.8 1.6 3.5 3.3 5.1 5 .8.8 1.5 1.4 2.7 1.5.2 0 .4.2 1 .4-.7.2-1.1.2-1.6.4 5.9 7.1 9.9 15.1 12.3 23.9 2.3 8.8 2.6 17.7.8 26.8.7.1 1.3.1 1.9.2.3.8-.4 1-.7 1.5-.3-.2-.8-.6-.9-.5-.3.2-.5.6-.6 1-1.3 5.4-3.5 10.4-6.7 14.9-2.5 3.5-5.6 6.3-9.1 8.6-1.7 1.1-3.3 2.1-5.1 3.2.1.5.1 1 .2 1.5-.1.1-.2.2-.3.2-.2-.4-.5-.8-.7-1.2-2.3 1.1-4.4 2.1-6.5 3.1-2.8 1.3-5.8 2.3-8.8 3.2-2.7.8-5.4 1.5-8.2 1.9-2.3.3-4.7.8-7.1.6-1.7-.1-3.4.3-5.1.2-1.9 0-3.8-.1-5.6-.5-2-.4-4-.4-6-.9-2.9-.9-6-1.4-8.8-2.4-3.7-1.4-7.4-2.8-10.9-4.9-3.3-2-6.6-4.1-9.6-6.5-4.7-3.8-9-8-12.3-13.2-2.7-4.4-5.2-8.9-6.7-13.9-1-3.4-1.3-6.9-1-10.4.5-6.4 2-12.5 4.6-18.3 1.7-3.8 3.6-7.5 5.7-11.1 3.1-5.4 7.5-9.8 12.4-13.6 3.5-2.6 7-5.2 10.6-7.6 1.2-.8 2.5-1.4 3.8-2.1 1.8-1 3.7-1 5.5.1.6.4 1.3.7 1.8 1.4-.9-.3-1.8-.5-2.6-.8-1.6-.6-3.1-.5-4.5.3-2.1 1.1-4.2 2.3-6.2 3.7-5.2 3.5-10.2 7.2-14.5 11.7-.9 1-1.8 2.1-2.6 3.3.3-.1.6-.1.9-.3 1.2-.5 2.4-1 3.5-1.5 1.2-.5 2.4-.4 3.4.5 1.6 1.3 3.4 1.4 5.3.8 3.4-1.1 6.3-3.1 9.1-5.2 1.5-1.1 1.2-3.7-.4-4.7-1-.6-2.1-1-3.3-1-1.9 0-3.8.1-5.8 0 .7-.2 1.3-.5 2-.5 2 0 4.1-.2 6 .1 2.1.3 3.3 2 3.3 4.1 0 .9-.3 1.7-1 2.3-3.1 2.5-6.4 4.7-10.1 6-1.8.6-3.8.4-5.3-.9-1.3-1.1-2.6-1-4-.4-2.2 1-4.4 1.8-6.1 3.7-.4.5-.8 1-1.1 1.5-4.1 7.2-7.5 14.7-9.1 22.9-.2 1.2.1 1.9 1 2.6 1.1.8 2.3 1.2 3.6 1.3 2.1.2 3.8 1.3 5.5 2.4 1.2.8 1.7 2 1.7 3.3 0 1.6.5 3 1 4.5.1.4.3.8.3 1.2.4 1.9 1.2 2.6 3.1 2.8 1.7.2 3.3.7 4.3 2.1.6.7 1 1.7 1.1 2.6.3 2.3.2 4.5-.9 6.7-.6 1.1-1 2.3-1.5 3.5-.8 2.1-.3 4.1.4 6.1.1.2.1.4.1.6l-.2.2c-1.3-2.5-1.9-4.9-.9-7.6.6-1.4 1.1-2.9 1.8-4.3.8-1.7.7-3.6.6-5.3-.2-2-1.4-2.9-3.7-3.6-.6-.2-1.2-.2-1.7-.3-1.7-.4-2.8-1.3-3.2-3.1-.2-1.2-.8-2.3-1.1-3.5-.2-.8-.3-1.6-.3-2.3 0-.8-.2-1.3-.7-1.8-1.2-1.4-2.8-2.1-4.5-2.7-.1 0-.2 0-.3-.1-2.1-.5-4.3-.6-5.8-2.6-.2.4-.3.6-.3.8-.6 6.1.1 11.9 2.9 17.4 2.1 4.3 4.3 8.6 7.3 12.3 3.5 4.3 7.5 7.9 12 11.2 2.8 2.1 5.8 4 9 5.5 5.1 2.6 10.4 4.4 15.9 5.7 1.7.4 3.5.5 5.2.8 2.2.3 4.4.9 6.6 1 5.5.2 10.9 0 16.3-1.3 4.3-1 8.6-2.1 12.6-4 2.6-1.2 5.1-2.4 7.6-3.7.5-.2.8-.8 1.1-1.2.4-.6.7-1.3 1.1-1.9.6-1 1.4-1.6 2.6-1.5.8.1 1.3-.3 1.7-.9.3-.4.7-.8.9-1.3 1.1-2.1 2.2-4.3 3.2-6.4.1-.2.2-.5.4-.7 2-1.8 2.9-4.3 4-6.7 1.3-2.7 3.1-5 5.7-6.5.8-.4.8-1.1.9-1.8.8-4.3 1.1-8.5 1.1-12.9 0-1.4-.5-2.5-1.5-3.3-.6-.5-1.2-1-1.8-1.6-.4-.4-.7-.9-1-1.4-.5-1.1-1-1.2-2-.6-.6.4-1.1.9-1.7 1.4-2.7 2.2-6.3.9-7.1-2.4-.5-2.2-2.3-3.5-4.2-4.2-1.2-.4-2.4.4-3.2 1.4-.7 1-1.5 1.8-2.6 2.3-.5.3-.9.9-1.3 1.4-.9 1-1.4 1.2-2.7.7-.5-.2-1.1-.5-1.5-.8-1-.8-2-1-3.1-.6-.9.3-1.7 0-2.4-.6-1.2-.9-2.4-1.8-3.5-2.8-1.2-1.2-1.5-2.7-1.7-4.4v-1.6c-1.4.7-2 2.4-1.2 3.5 2.1 2.6 3.5 5.9 6.5 7.8 1 .7 2.1 1.2 3.2 1.8 2.6 1.4 3.3 3.6 1.7 6-.6.9-1.4 1.6-2.1 2.4-.6.8-1.3 1.5-1.8 2.4-.6.9-.9 1.9-1.4 2.9-.3.7-.3 1.2.4 1.7 2.2 1.3 2.7 3.6 3.3 5.8.1.4-.1 1.1-.3 1.5-.9 1.5-2.6 2-4.1 2.6-.2.1-.4 0-.6 0-1.7-.2-3.3.7-3.8 2.3-.8 2.6-2.2 4.7-4.7 6-.5.3-.9.8-1.3 1.1-1.2.9-2.4.9-3.2-.4-1-1.7-2-3.4-2.8-5.2-.6-1.2-.7-2.7-1.3-3.9-.9-1.9-1.6-3.8-1.9-5.9-.3-2.1-1.7-3.6-2.8-5.3-.2-.3-.6-.4-1-.4-1.5-.2-3-.5-4.6-.6-1.7-.1-3.1-1-4.5-1.7-.3-.2-.4-.7-.7-1-.8-.9-1.8-1.6-2.8-2.3-1-.7-1.7-1.7-2.4-2.7-1-1.4-1.9-2.9-2.8-4.4-.3-.4-.5-.9-.5-1.4-.1-.6-.1-1.2 0-1.8.1-1.8.4-3.5 2.1-4.7 1.1-.7 1.9-1.8 2.9-2.7.9-.8 1.9-1.4 3.3-1.3 2.2.1 4.5-.1 6.7-.1 1.3 0 2.5.5 3.5 1.4l4.2 3.6c1.2 1 2.6 1.2 4 1.4.3 0 .8-.1 1-.3.4-.6.9-1.3 1-2 0-1.1.6-1.9 1.3-2.6.4-.5.8-1 1.2-1.6-.2-.3-.6-.5-.7-.8-.2-1.1-1-1.5-1.8-2.1-.5-.3-.8-.8-1.3-1.4-.5.3-.9.9-1.2 1.7-.6 1.6-1.9 2.4-3.4 2.9-.9.3-1.5-.1-1.5-1 0-.6.1-1.2.4-1.7.6-1.3 1.4-2.5 2-3.8-1.1-1.4-2-1.7-3.6-1.1-1.2.5-2.4 1-3.1 2.3-.4.9-1.5 1.5-2.3 2.1-1 .7-2 .9-3.3.3-1.2-.6-2.5-.8-3.8-1.3-1-.3-1.9-.8-2.1-2 0-.3-.1-.6 0-.8.9-1.9 1.2-4 2.7-5.5.2-.2.3-.5.6-.5.3-.1.6 0 .9.2.1.1.1.6 0 .7-.8.6-1.1 1.6-1.8 2.4-.9 1-.9 2.1-1.2 3.2-.1.3.4.9.7 1.1.5.3 1.2.5 1.8.7l2.1.6c.7.2 1.3.9 2.2.4 1.2-.7 2.3-1.3 2.9-2.6.3-.6.5-1.3.8-2.1.4.5.9.8 1.5.5.2-.1.4-.1.6-.3 2.3-1.5 4.1-.3 6 1.3-1.2 1.7-2.4 3.3-2.9 5.5 1 .3 1.7-.2 2.2-1 .4-.6.7-1.4 1.1-1.9.6-.7 1.2-1.4 2-1.8.9-.5 1.4 0 1.3 1.1v.7c1.2.8 2.4 1.7 3.8 2.7-.2.4-.4.9-.7 1.4-1.1 2-2.3 3.9-3.5 5.9-.7 1.2-1 1.4-2.4 1.2-2.4-.4-4.4-1.4-6.1-3.2-.8-.8-1.7-1.5-2.6-2.1-.7-.5-1.5-.9-2.4-.9-2.4-.2-4.8-.3-7.1.1-1.4.2-2.4.8-3.3 1.7l-1.8 1.8c-2.1 1.7-2 3.9-1.6 6.1.2.9.9 1.7 1.3 2.6 1.7 3.6 4.4 6.3 7.4 8.7 1.1.8 2.6 1.1 4 1.4 1.4.3 2.8.4 4.3.6.8.1 1.4.5 1.8 1.1 1.5 2.2 2.8 4.5 3.2 7.2.2 1.5 1.1 3 1.7 4.5.1.3.4.7.4 1 .2 2 1.2 3.7 2.3 5.4.5.8 1.1 1.5 1.7 2.4.6-.3 1.1-.5 1.5-.8.6-.4 1.1-.9 1.7-1.2 1.8-1.1 2.8-2.7 3.5-4.6 1-2.6 2.1-3.3 4.9-3.4 1.4 0 2.7-.7 3.6-1.8.5-.6.5-1.3.2-2-.7-1.9-1.4-3.7-3.4-4.6-.9-.4-1-1.1-.5-2 .7-1.4 1.4-2.9 2.2-4.2.3-.6.8-1.1 1.4-1.5 1.1-.7 1.8-1.8 2.5-2.8 1-1.7.5-3.2-1.2-4.1-1.2-.6-2.4-1.1-3.5-1.9-2-1.3-3.4-3.1-4.7-5.1-.4-.7-1-1.4-1.6-2-1.2-1.3-1.3-2.8-.9-4.3.3-1.1 1.4-1.6 2.3-2.1.6-.3.6-.3 1.6.3-.9 1.7-.7 3.5 0 5.2.1.3.3.7.5 1 1.1.9 2.2 1.9 3.3 2.7.3.3.9.4 1.3.4 1.3-.1 2.6-.2 4-.4.2.4.3.7.5.9.8 1.2 1.8 1.3 2.9.3.7-.7 1.5-1.2 2.2-1.9l1.2-1.2c.6-.7 1.3-1.4 2.3-1.7 1.3-.5 2.4-.7 3.5.4.6.6 1.6.9 2.3 1.7.7.8 1.2 1.6 1.4 2.6.3 1.5 1.6 2.1 2.8 2.7.9.4 1.8-.1 2.5-.6.6-.5 1.2-1 1.9-1.5.5-.3 1-.5 1.6-.6.9-.1 1.3.1 1.4 1 .1 1.1.6 1.7 1.4 2.3.7.6 1.2 1.4 1.9 2.1.1 0 .2-.1.3-.1-.2-1.4-.3-2.8-.5-4.2-.8-4.3-1.8-8.5-3.5-12.6-1.3-3.3-2.8-6.4-4.6-9.4-1.6-2.6-3.5-5.1-5.4-7.5-.5-.6-1-.9-1.8-.8h-4.2c-1.3 0-2.4.4-3.1 1.8-.6 1.3-.7 1.2-2.1.8-.9-.3-1.9-.4-2.8-.8-1.9-.7-2.3-1.5-1.4-3.2l.3-.6c.7-.8.8-1.8.3-2.7-.6-1-1.7-1.5-2.9-1.4-.8.1-1.7.2-2.5.2-1.7.1-3.4.1-5-.7-.3-.1-.6-.2-.9-.2-1.2 0-2.3-.6-3.2-1.2-2.3-1.6-4.9-1.6-7.5-.8-1.3.4-2.1 1.4-2.5 2.6-.5 1.3-.7 2.8-1 4.2-.1.4 0 .8.1 1.1.2.7.3 1.6 1.2 1.8.9.2 1.1-.7 1.5-1.3.1-.1.1-.2.2-.3 1.1-1.7 1.9-2.1 3.9-1.4.5.1.9.4 1.3.6.4.2.8.4 1.2.4 2 .3 4 .5 6 .9 1.6.3 3.2.5 4.6 1.2.9.4 1.6 1.5 2.3 2.3.4.5 0 1.1-.6 1.5-2.1 1.1-4.3 2-6.7 2.6-.5.1-1 .1-1.4.4-1.6 1.1-3.2.8-4.9.5-.7-.1-1.5-.2-2.2-.1-1.4.2-2.7.1-3.9-.9-1.5-1.2-2.7-1.1-5.1-.2v1c-.4 0-.9.1-1.1-.1-1-1-2.4-1-3.7-1.4-1.8-.5-4.7.4-6 2 .4 0 .7.1 1.1.1-.1.2-.1.3-.1.3-.3.1-.6.2-.9.1-.4-.1-.9-.3-1-.5-.1-.3.2-.9.5-1.1.9-.5 1.8-.9 2.7-1.3 1.6-.7 3.2-1 4.9-.3 1.8.6 3.6.6 5.5-.2 1.4-.6 2.7.2 3.7.9 1.4.9 2.6 1 4.1.6.5-.1 1.1 0 1.7.1 1.1.3 2.1.3 3.2-.1 2-.7 4.2-1.2 6.3-1.8 1-.3 2-.9 3-1.4-.6-1.6-1.5-2.4-2.9-2.6-2.3-.4-4.6-.9-6.9-1.4-.4-.1-.7.1-1.1.1-1 .1-1.9-.1-2.7-.7-1.9-1.2-3-.9-4.2 1-.2.4-.4.8-.7 1.1-.8 1-1.7 1-2.5 0-1.2-1.6-1.5-3.4-.9-5.3.1-.4.3-.7.3-1.1 0-1.7 1.1-2.8 2.2-3.7 1.2-1 2.6-1.4 4.1-1.4 2.1 0 4.1.3 5.9 1.6.3.3.7.5 1.1.5 3.2.5 6.4 1.3 9.8.9 2.4-.3 4 1.6 4.1 3.8 0 .4-.3.8-.5 1.2-.2.4-.6.8-.8 1.2-.4.9-.2 1.4.7 1.8.4.2.9.3 1.4.4 2.2.6 2.2.6 3-1.2 2.4-1.7 5-1.2 7.5-1 0-.1.1-.2.2-.3-.7-.8-1.3-1.6-2.1-2.3-3.2-2.7-6.3-5.4-9.7-7.8-5.4-3.8-11.4-6.4-17.8-8-5.3-1.3-10.8-2-16.3-2.1-7.4-.1-14.5 1.2-21.5 3.4-1.4-.1-3.3.7-5.3 1.5zm73.2 90.7c7.9-4.4 14.4-17.5 14.1-22-.3.1-.5.2-.7.3-1.7 1.3-3.1 2.9-4 4.8-.9 1.9-1.7 3.9-2.9 5.5-1.4 1.9-2.4 4-3.6 6-.9 1.8-1.8 3.5-2.9 5.4zm-4.4 2.7c1.4-.5 2.6-1.4 4-2.4-2.4-.3-3 .1-4 2.4z"/><path class="st0" d="M53.6 125.6c-.2-.4-.3-.6-.4-.9-.5-1.1-.1-2.4.9-3 .6-.4 1.2-.7 1.8-1 .9-.5 1.8-.2 1.9.8.3 2.3 0 4.6-1.4 6.9-.4-1.4.4-2.4.4-3.4.1-1.1 0-2.2 0-3.5-.8.4-1.5.7-2.1 1-.9.6-1 1.2-.5 2.2.7 1.3.7 1.4-.5 2.3-.2.2-.4.3-.8.5.7 2.1 2.6 1.4 4.1 1.9-.2.2-.4.6-.5.6-1.1-.1-2.4-.1-3.4-.5-1.5-.8-1.3-2.6.5-3.9zM51.1 118.4c1.8-.1 2.8 1 2.4 2.5-.2.8-2.4 1.7-3.1 1.2-.8-.6-.7-1.5.5-2.2.1.4.2.8.3 1.4.4-.1.8-.2 1.1-.4.6-.6.3-1.2-1.2-2.5zM29.9 111.2c-.7.3-1.4.5-2.4.8 1.2-1.1 1.3-1.1 2.4-.8z"/><g><path class="st0" d="M98.6 62c-.4-.2-.5-.4-.4-.8.4-1.2.3-2.4-.4-3.5-.1-.2-.2-.4-.3-.7l-.6.3c-.8.6-1.6 1.1-2.3 1.9-.5.5-1.1.8-1.6 1.3-.3.3-.6.6-.7 1-.2 1-.5 2-.8 2.9-.1.3-.2.5-.4.7-.4.5-.8 1.1-1.2 1.6-1.2 1.6-2.8 2.8-4.2 4.1-.3.3-.6.6-1 .8-.1.1-.4.1-.5.1-.1-.1-.2-.3-.2-.5 0-.3.1-.5.1-1-.3.2-.5.3-.7.4-.5.4-1.1.7-1.6 1.1-1.1.9-2.5 1.3-3.7 1.9-.8.3-1.7.5-2.5.7-.2 0-.4 0-.6-.2-.1-.1 0-.4.1-.5.6-.9 1.2-1.8 1.7-2.8.8-1.4 1.3-3 1.4-4.6 0-.8-.1-1.6-.1-2.5-.8.6-1.4 1.1-2.1 1.5-.1-.2-.3-.3-.3-.4-.7-1.9-1.1-3.8-.8-5.8.3-2 1-3.9 2.1-5.6 1.4-2.2 2.9-4.2 5-5.6.3-.2.7-.4 1-.6.1 0 .2.1.3.1.1.5-.3.7-.5.9-.7.5-1.4 1.1-2.1 1.6-1.4 1.1-2.3 2.6-3.2 4.1-.9 1.4-1.5 3-1.8 4.6-.3 1.7-.3 3.4.3 5.1.1.1.2.3.3.5.5-.4 1-.8 1.4-1.2.1-.1.4-.3.5-.2.2.1.3.3.4.5.5 2.5.2 4.9-.8 7.2-.5 1-.9 1.9-1.4 2.9 1.6 0 2.9-.8 4.2-1.5 1.3-.7 2.5-1.7 3.8-2.6.6 0 .5.6.5 1.3.4-.3.7-.4.9-.6.9-.8 1.9-1.6 2.7-2.4 1.1-1.2 2.2-2.4 2.7-3.9.2-.5.2-1.1.3-1.6-.3-.2-.5-.4-.7-.6.2-.2.5-.4.7-.6-.4-.6-.3-.6.1-1.2.2-.3.5-.6.6-.9.1-.3.1-.6 0-.9-.3-.7-.2-1.4.2-2 .6-.9.8-1.9.8-3-.1-.1-.3-.3-.5-.4-2.3-1.8-4.4-3.8-6.8-5.5-.8-.5-1.5-1-2.5-.9-.3 0-.6.1-.9-.3.3-.1.5-.2.8-.3-.4-.5-.4-.5-1-.1-.1-.3-.2-.6-.4-.8-.4-.2-.9-.5-1.3-.5-1.3-.1-2.7-.1-4 .3-.4.1-.8.3-1.2.4-.9.2-1.7.5-2.6.7-.4.1-.8.2-.9.7 0 .2-.3.3-.4.5-.5-.7-.9-1.3-.7-2.2.1-.2.1-.4 0-.6-.4-.8-.2-1.6.1-2.4.6-1.5 1.3-3 2.5-4.2.6-.6 1-1.2 1.3-2 .2-.5.5-.9.8-1.4.2-.4.6-.5.9-.2 3-3.6 6.7-5.8 11.5-6.4.4-.6.9-1.2 1.4-1.9 1.3-2 2.9-3.7 4.4-5.5 2.6-3.1 5.6-5.7 8.7-8.4.6-.5.6-.5.8-1.2.4-.1 1 0 1.2-.7-.3-.3-.7-.6-1-1-.1-.1-.1-.4-.2-.6.2 0 .4-.1.5-.1.4.1.8.3 1.2.5.6.3 1 .2 1.4-.2.9-.8 1.9-1.6 2.9-2.3.4-.3.9-.7 1.3-1 .2-.2.4-.4.6-.7.2-.2.5-.5.8-.6 1.9-1.1 3.8-2.2 5.9-2.9.7-.2 1.4-.4 2.1-.5.6-.1.7 0 .8.6.2 1.3.2 2.6 0 4-.3 2-.5 4-.8 5.9-.1.4 0 .7.3 1 .5.5.6 1.1.4 1.7-.1.4-.2.8-.4 1.1-.7 1.6-1.5 3.1-2.2 4.7-.7 1.8-1.4 3.6-2 5.4-.5 1.6-1 3.3-1.5 4.9-.1.2-.2.4-.1.6.2.6-.2 1-.4 1.5-.3.6-.6 1.1-.8 1.7-.9 2.3-2 4.5-3.3 6.6-.1.2-.2.5-.3.7-.2.8-.4 1.6-.6 2.5-.1.4-.1.8-.2 1.2-.2 1.2-.3 2.3-.6 3.5-.1.5-.4.9-.6 1.4-1.6 3.2-3.4 6.4-5.6 9.2-.8 1-1.7 1.9-2.6 2.8-.3.2-.6.5-.8.9zm-.4-19.7c-.4.5-.8 1-1.2 1.4l.1.1c.4-.4 1-.8 1.1-1.5.2 0 .4-.2.2-.5-.1.2-.1.3-.2.5zm-18.4-9c.3-.2.6-.5 1-.7.2-.1.4-.2.5-.2.1 0 .3.2.4.3.6-.6 1.3-1 1.7-1.9-1.2.3-2.1.7-2.9 1.4-.3.3-.7.6-.7 1.1-.2-.1-.4-.1-.6-.2 0 .4-.1.6-.1.9.1 0 .1 0 .2.1.1-.3.3-.6.5-.8zm3.1 10.3c.6.1 1 .2 1.5.3.4.1.9.1 1.3.3 1.8.6 3.3 1.6 4.7 2.9.8.8 1.8 1.4 2.6 2.2.1 0 .1-.1.2-.1-.1-.6-.3-1.3-.4-1.9-.2-.7 0-1.4.5-1.7.5-.2.6-.6.9-1.1-.3.1-.5.1-.8.1.2-.3.4-.4.7-.5.4-.3.8-.5 1-.8.9-1.4 1.8-2.9 2.7-4.4.6-1.1 1.1-2.3 1.6-3.4.2-.5.5-.9 1.1-.7.9-1.5 1-1.6 1.6-1.6-.1.4-.2.7-.3.9.3.1.5.2.8.3.1 0 .2.1.2.1.3-.1.6-.1.8.3l.3.9c.1.2.1.4.1.7.2-.2.4-.3.5-.4.9-1 1.9-1.9 2.7-3 1-1.3 2-2.6 2.9-4 .7-1 1.1-2.2 1.8-3.2 1.2-1.7 1.7-3.7 2.3-5.6 0 0 0-.1-.1-.2-.4 1-.8 1.9-1.2 2.8-.1 0-.1-.1-.2-.1.7-1.8 1.3-3.6 1.8-5.5-.2-.1-.3-.2-.5-.3-2-.8-3.6-2-5.2-3.3-.5-.4-1-.8-1.7-1-.7-.3-1.5-.6-2.2-.9-.3-.1-.6-.3-.8-.4-.3-.2-.6-.1-.9.1-1 .9-2 1.6-2.9 2.5-1.8 1.7-3.5 3.4-5.2 5.2-1.6 1.7-2.9 3.7-4.3 5.6-.5.7-1 1.4-1.5 2.2-.1.2-.2.4.1.5.7-.7.7-.7 1.5 0-.2.2-.4.4-.6.7l-.6.9c-.2.4-.4.7-.6 1.1-.2.4-.5.8-.7 1.2-.3.7-.6 1.3-.9 2-.2.5-.3 1-.9 1.2-.2.1-.3.3-.3.6-.2.8-.5 1.6-.6 2.4-.1.6 0 1.3-.8 1.4-.1 0-.1.1-.2.2-.4.7-.8 1.4-.9 2.2 0 .2-.1.5-.2.7-.1.4-.4.9-.7 1.6zm32.3-30.1c.2-1.5.4-3-.2-4.4-.2-.5-.3-1.1-.4-1.7 0-.2-.1-.6.3-.6.2 0 .5.2.6.4.2.5.4 1.1.5 1.7.1 1.4.2 2.7.2 4.1 0 .6 0 .6.7.8 0-.1.1-.2.1-.4.3-1.2.5-2.4.8-3.5.4-2.1.3-4.3-.1-6.4-.2-.8-.4-1.5-1.3-1.9-.2.2-.5.4-.7.6-.2.1-.3.3-.5.3-1.1.4-2 1.1-3 1.9.6-.2 1.2-.5 1.9-.7.8-.3 1.6-.5 2.4-.8.2-.1.5-.1.7.3l-.6.9-.5-.5c-1.2.3-2.4.8-3.4 1.4-1.1.6-2.1 1.2-3.1 1.8-1 .6-2.1 1.3-3 2.2 1 .8 1.9 1.5 2.9 2.2.9.6 1.8 1.2 2.8 1.8.3.2.6.2.9.3.4.1 1.1.1 2 .2zm-16 45.9h.2c.1-.2.3-.5.4-.7.4-.9 1-1.6 1.6-2.4.2-.2.3-.5.5-.7 1.1-1.6 1.9-3.5 3.3-4.9.1-.1.1-.1.1-.2l1.8-4.5c.3-.7.5-1.4.1-2.2-.1-.1 0-.3-.1-.5.3-.1.6-.2 1-.3 0-.3.1-.6.1-.9-.1 0-.1 0-.2-.1-1 1-2 1.9-2.9 2.9l-.4.4c-.3.2-.6.4-.8.7-1 1.2-1.9 2.4-2.9 3.6-.3.4-.7.7-.4 1.2v.2c-.1.4-.6.8-.3 1.4 0 .1-.1.2-.2.3-.7.8-1.4 1.7-2.1 2.5-.3.4-.6.7-.9 1.1v.2c.2 0 .3-.1.3-.1.9.8 1.3 1.9 1.8 3zm9.1-24.6c.1 0 .1.1.2.1l.9-1.2c1.8-2.6 3.1-5.5 4.6-8.2.6-1.1 1.2-2.1 1.8-3.2.6-1.3 1.1-2.6 1.4-4.1-.3-.1-.5-.2-.8-.3l-.6 1.2c-.6 1.5-1.2 2.9-1.9 4.4-.2.5-.5.9-.7 1.4-.8 2.5-2.1 4.8-3.3 7.1-.6.9-1.1 1.9-1.6 2.8zm11.2-31.7c-.1.4-.2.7-.3 1.1-.1.2 0 .5-.2.6-.3.5-.3 1.1-.4 1.6-.1 1.1-.1 2.3-.3 3.4-.2 1.2-.5 2.3-.7 3.5-.2.8-.1.8.7.9l.1-.1c.2-1.3.5-2.7.7-4.1.2-1.3.4-2.6.5-3.9 0-.2 0-.6-.1-.6-.5-.4-.3-.7-.1-1.1.4-.4.4-.8.1-1.3zm-9.2 26.7c-.1.1-.1.2-.2.3-1.5 2.4-3.4 4.6-5.5 6.6-.7.7-.6 1.4-.4 2.3 2.8-2.7 4.5-6 6.1-9.2zm-2.9 9.1c-1 .6-1.9 1.3-2.8 1.7-.6.3-.8.7-.9 1.3-.2 1.1-.4 2.1-1.3 3-.1.1-.2.3-.3.5 2.2-1.9 4.3-3.7 5.3-6.5zm-20.8 7.7c.1.1.2.2.4.3 1.2.9 2.4 1.9 3.6 2.8.7.6 1.5 1.1 2.2 1.7.1.1.3.1.6.2-.1-.3-.2-.6-.3-.7-.6-.7-1.1-1.4-1.8-2.1-1.4-1.2-2.9-1.9-4.7-2.2zm-6.4-12.5c-1.3.9-4.7 7.1-4.9 8.6.3-.1.6-.1.7-.2 1.5-2.9 2.8-5.7 4.2-8.4zm34.7-18.6c-1.3-.9-4.1-2-4.9-1.9 1.3 1.3 3.6 2.6 4.7 2.7.1-.2.1-.5.2-.8zM78 32.6c2.8-1.4 5.2-3.4 8.1-4.5-3.2.7-5.9 2.1-8.1 4.5zm33.2 3.1c-1.5 2.4-3.5 4.5-5.1 7.1 2-1.2 4.7-5.3 5.1-7.1zM119.7.9c-.9-.1-1.6 0-2.4.4.2.5.5 1 .7 1.5.2.5.3 1 .4 1.5.2-.3.4-.6.4-.9.2-.9.1-1.8.9-2.5zM88.8 28.6c-.6-.2-.8.1-1 .5-.6 1.1-1.3 2.2-1.9 3.4-.5 1-.9 2-1.4 3v.4c.1-.1.2-.1.2-.1.9-1.7 1.8-3.5 2.7-5.2.2-.3.4-.6.7-.8.4-.3.6-.7.7-1.2zm6 19.7c.3-.8.7-1.5 1-2.3-.6-.2-.7-.3-.4-.8.1-.2.2-.4.4-.7h-.5c-.5.7-1 1.4-1.4 2.1-.1.1.1.6.2.6.6.2.7.6.7 1.1zm11.3-9.5s0 .1 0 0c.4-.2.7-.4 1-.7 1.6-1.4 2.6-3.3 3.8-5V33h-.1c-1.7 2-3.2 3.9-4.7 5.8zm-.5-29.2c1.2 1.4 2.7 2.4 4.4 3.1-1.4-1.1-2.7-2.4-4.4-3.1zm-1.1 43.6c-1.4 1.5-2.3 3.5-3.6 5.1 1.5-1.5 2.6-3.3 3.6-5.1zm-9.4 3.3c-1 .2-2 1.6-2 2.7.5-.4 1.2-.7 1.3-1.4 0-.2.2-.4.3-.6.1-.2.3-.4.4-.7zM75.9 36.2c-1.6 1.2-2.3 2.5-2.1 3.5.7-1.2 1.4-2.3 2.1-3.5zM97.3 45l.1.1c1.3-1.7 2.5-3.4 3.8-5.1-1.6 1.4-2.7 3.2-3.9 5zm21.9-30.3h.2c.3-.9 1-1.7.3-2.8-.3.8-.4 1.7-.6 2.5 0 .2.1.3.1.3zm-18.8 24.6l.1.1c.2-.3.5-.5.7-.8.2-.2.4-.3.6-.5l.9-.6c.4-.4.4-.4 0-1-.7 1-1.5 1.9-2.3 2.8zM78 42c.4-.1.6-.1.6-.2.5-.9.9-1.9 1.3-2.8-.1 0-.1-.1-.2-.1-.2 1.1-1.3 1.8-1.7 3.1zm-5.1 1.2c.6-.1 1.1-.2 1.6-.4V42c-.5.2-.8.8-1.4.4-.1.2-.1.5-.2.8zm9.6-1.3c.1-.4.1-.7.1-1.1-.3 0-.5-.1-.7-.1-.1.3-.2.6-.3.8.3.2.6.3.9.4zm18.1-4.2s.1 0 .1.1l1.6-1.6c.3-.3.3-.3 0-.6-.6.7-1.2 1.4-1.7 2.1zM98 47.9l-.1-.1c-.6.6-1.1 1.3-1.7 1.9l.1.1c.8-.4 1.1-1.3 1.7-1.9zm.1-.5c.7-.4 1.4-1.3 1.6-1.9-.5.6-1 1.3-1.6 1.9zm1.3-7.8c-.6.2-1.1.9-1.2 1.6.5-.6.8-1.1 1.2-1.6zm-21.7 1c-.2.5-.4 1-.7 1.5.6-.2.7-.3.7-1.5zm19.6 9.8c-.9.5-1.1.8-1.1 1.3.4-.5.8-.9 1.1-1.3zM83 38.9c-.6.7-.7.8-.3 1.5l.3-1.5zm34.3-24.3c-.1.2-.1.4-.1.5.3.1.6.3.9 0-.2-.3-.2-.3-.8-.5zm-.3 1.5c.2.2.4.3.7.5.1-.6.1-.6-.7-.5zm-16.7 30.3c-.3.4-.6.7-.9 1.1.6-.2.6-.2.9-1.1zm-14.5-.8c0-.1 0-.1.1-.2-.4-.2-.9-.4-1.4-.5 0 .1 0 .1-.1.2.5.2.9.4 1.4.5zm9.6 5.1c-.3.4-.3.4-.3.9.5-.4.5-.4.3-.9zm7.2-3.9c-.8.3-.8.3-.8 1 .3-.4.5-.6.8-1zm-28.3-6.7c.2-.2.5-.5.5-.9-.2.3-.4.6-.5.9zm7.2 2.8c.3-.1.5-.2.8-.2-.4-.3-.6-.2-.8.2zM115.7 17c.5-.2.4-.4.3-.6 0 0-.1 0-.2-.1 0 .2-.1.4-.1.7zM75.5 38.2l-.1-.1c-.1.2-.3.5-.4.7 0 0 .1 0 .1.1.1-.3.3-.5.4-.7zm20.8 14.6s.1.1.2.1c.1-.2.3-.4.4-.6 0 0-.1 0-.1-.1-.2.2-.4.4-.5.6zm-.7 1.1c-.1 0-.1-.1-.2-.1 0 .2-.1.3-.2.5.1 0 .1 0 .2.1 0-.2.1-.4.2-.5zM76.9 36.1l-.1-.1c-.1.2-.2.3-.3.5 0 0 .1 0 .1.1.1-.2.2-.4.3-.5zm3.3 5.6c0-.1 0-.1.1-.2-.1-.1-.2-.1-.4-.2 0 .1-.1.2-.1.4.1-.1.2-.1.4 0zm36.9-24.3c0-.1 0-.1.1-.2-.1 0-.2-.1-.4-.1v.1c0 .1.2.2.3.2zm-9.8 30.7s-.1 0-.1-.1c-.1.2-.1.3-.2.5h.1c0-.1.1-.2.2-.4zM83.6 107.2c.6-.3 1.3-.5 1.9-.8 1.4-.7 2.9-1.3 4.1-2.3.5-.5 1-1 1.4-1.5.7-.8.8-1.8.7-2.8 0-.4-.5-.9-.8-1.3-.4-.4-1-.6-1.5-.6-.2 0-.5-.1-.5-.4 0-.3.3-.4.5-.4 1.2.1 2.1.7 2.7 1.7.1.2.2.4.4.7.8-.4 1.1-1.1 1.2-1.8.4-2.2-.6-3.9-2.2-5.2-2.4-1.9-5.1-2.2-8-1.4-.7.2-1.2.7-1.8 1-.8.5-1.7 1.1-2.5 1.7-.1-.1-.3-.2-.3-.3-.1-.7-.2-1.4.2-2 1.4-2.6 2.8-5.3 4.2-7.9.2-.5.5-.9 1.2-.6.4-.6.7-1.2 1.1-1.8 2.2-3.6 4.1-7.4 6-11.2.5-1 .9-2 1.4-3.1.2-.4.4-.8.7-1.1.3.2.2.4.1.6-.8 1.8-1.6 3.5-2.5 5.2-1.4 2.7-2.7 5.3-4.2 7.9-1.1 1.9-2.3 3.8-3.4 5.7-.5.8-1 1.7-1.4 2.5-.2.4-.3.8-.5 1.2-.1.2-.2.4-.4.5-.9.7-1.2 1.7-1.5 2.7.9-1 2.1-1.4 3.3-1.9.6-.2 1.1-.5 1.7-.8.1.1.1.3.2.4.1.1.3.1.5 0 1.6-.2 3.1.1 4.6.8 1.7.8 3 2 3.8 3.6.7 1.5.8 3 0 4.5-.2.5-.7.9-1.1 1.4v.1c.4 1.1-.1 2-.6 2.9-1.3 2.2-3.5 3.3-5.7 4.2-.6.2-1.3.5-1.9.6-.7.1-1.3.1-1.9.2-1.1 1.2-2.1 2.4-3.1 3.5-1.6 1.7-3.6 2.8-5.9 3.3-.9.2-1.8.5-2.7.4-1.5-.2-2.8-.8-3.8-2.1-.1-.1-.2-.3-.4-.4-.3.3-.5.6-.8.8-1.7 1.5-3.7 2-5.8 2.1-2.9.2-5.6-.5-8.2-1.8-1.9-.9-3.6-2.1-5-3.7-1.2-1.3-2-2.8-2.4-4.5-.2-.7-.2-1.5.1-2.2.2-.6.4-.7 1.2-.5v.2c-.8.5-.8 1.2-.6 1.9.1.7.3 1.5.6 2.2.6 1.4 1.5 2.6 2.6 3.6 3.2 2.7 6.9 4.2 11.2 4.2 1.5 0 2.9-.3 4.2-.8.8-.3 1.4-.9 2.1-1.4.3-.2.4-.5.2-.9-.1-.2-.1-.4-.1-.7.5.1.8.3 1.2.4 0 .9.6 1.4 1.3 1.9.6.5 1.4.7 2.1.9.8.2 1.5-.4 2.2-.5.1 0 .1.1.2.1-.2.2-.4.3-.6.5 0 .1.1.1.1.2 1-.4 2.1-.7 3.1-1.1 1.9-.8 3.4-2.2 4.7-3.8.7-.8 1.3-1.6 1.8-2.5 1-1.9.3-4-1.8-5-1.6-.7-3.2-1.1-4.9-.7h-.4l-.1-.1c.3-.5.8-.5 1.3-.6 1.2-.2 2.5 0 3.6.5.9.3 1.7.9 2.4 1.5.8.7 1 1.7 1 2.8 0 .5-.2 1-.2 1.6 2.8.6 8.2-2.6 9-5.3-2.1 3.2-5.2 4.4-8.6 5.1z"/><path class="st0" d="M50.2 86.2c-.1-.1-.3-.2-.3-.3-.3-.4-.7-.4-1.1-.2-2.6 1.3-4.9 3-6.2 5.7-1.2 2.5-.9 5 1 7.1 1.2 1.3 2.5 2.3 4.2 2.8 1.2.4 2.4.4 3.6.1.4-.1.7-.2 1.1-.2-.9.6-1.8.9-2.9.9-1.9 0-3.6-.7-5-1.9-.4-.3-.7-.6-1.2-.8l.3.6-.1.1c-.2-.1-.3-.1-.5-.2-1.6-1.7-2.9-3.5-2.6-6 .1-1 .4-2.1.8-3.1.6-1.6 1.6-3 2.9-4.2.2-.2.6-.3.8-.5.1-.1.3-.2.4-.3.9-.6 1.8-1.2 2.8-1.9-.1-.3-.2-.7-.4-1.1-.1-.4-.2-.8-.4-1.2-.1 0-.3 0-.7.1.9-1.5 1.9-2.7 3-3.8 1.1-1.1 2.4-1.9 3.8-2.7h-.6v-.1l.6-.3c2.7-.9 5.3-.5 7.8.8 1.1.6 1.9 1.4 2.5 2.4.4.7.8 1.3 1.3 2.1.2-.4.4-.7.5-1 1.3-3.1 2.6-6.2 3.9-9.2.7-1.7 1.6-3.3 2.6-4.8.1-.1.3-.2.5-.3.1.2.2.3.2.5.2.6 0 1.1-.2 1.6-2 4.7-4.2 9.2-6.7 13.6-.6 1.1-1.2 2.1-1.8 3.2-.1.3-.1.6-.2 1-.4.1-.8.5-1.1 1.1-.1.1-.3.1-.5.2 0-.2-.1-.4-.1-.5.3-.6.6-1.1.9-1.7l1.5-2.4c-.9-.3-1.1-1-1.2-1.7-.1-.5-.2-.8-.7-1.1-1.5-.8-3-1.6-4.4-2.5-.9-.6-1.8-.6-2.7-.4-2.5.6-4.7 1.8-6.5 3.7-1.1 1.3-1.1 2.6-.5 4.1.1.3.3.3.6.3h2.9c.6 0 1.2.1 1.8.4.4.2.9.5 1.4.8l-.3.6c-.4-.1-.7-.3-1.1-.4-.2.2-.3.4-.5.7-.2-.3-.4-.5-.6-.7-.2.1-.4.2-.7.2-.5-.7-1-.8-1.9-.5.5.7.5.7 0 1.3zm9.5-10.5c0 .1-.1.1-.1.2.5.4 1.3.8 2.1 1.1-.6-.6-1.2-1.1-2-1.3zM88.8 50.3c-.1.3-.3.6-.4 1 .3.2.6.3 1 .5 0 .8-.8 1.4-1 2.3l.4-.4c.5-.7.6-.7 1.3-.2.4-.2.7-.5 1.1-.7.3-.1.5 0 .5.3v.8c-.3 1.8-.8 3.6-1.7 5.2-.2.4-.5.7-1 .7-.2-.2-.3-.5-.6-.8-.2.3-.4.5-.6.7-.9 1.2-1.7 2.4-2.6 3.5-.5.6-.9 1.3-1.8 1.4-.3 0-.5.4-.7.6-.4-.2-.3-.4-.2-.7.1-.4.3-.8.4-1.3.3-1 .1-2-.3-2.9-.4-1-.9-1.9-1.2-2.9-.4-1.2-.7-2.5-.1-3.7.8-1.5 1.7-3 3.1-4.1.4-.3.8-.7 1.3-1 .2-.2.5-.2.9-.4 0 .4 0 .6.1.8.3.5.1.7-.3 1-.3.2-.4.4 0 .8.2-.2.3-.4.5-.5.1-.1.3-.1.5-.1v.5l-1.8 2.7c-.7 1.1-1.4 2.1-2.1 3.2-.1.1-.1.3-.2.4l.1.1c.3-.3.6-.7.9-1 .9-1.4 1.8-2.9 2.7-4.3.3-.5.7-1 1-1.5.3 0 .4-.2.8 0zM84.6 63c.1 0 .1.1.2.1l.3-.3c.6-.8 1.2-1.6 1.7-2.4.4-.6.7-1.2 1-1.9.2-.4.1-.6-.4-.6-1 1.8-1.9 3.5-2.8 5.1zm-.5-3.7l-.8.4.4.8c.2-.5.3-.8.4-1.2zm5.1-1.4c-.3.3-.3.6.1.8.4-.3.4-.5-.1-.8zm-5.7.6l-.1-.1c-.2.1-.3.3-.5.4.1.2.2.3.3.5.1-.3.2-.6.3-.8zm-.2-3c.1 0 .1.1.2.1.2-.3.3-.6.5-.9-.3.3-.5.5-.7.8zm.9 8.3c-.5.2-.5.2-.4.5.1-.1.1-.2.4-.5zm4.1-9.2c-.1 0-.1 0-.2-.1-.1.2-.1.4-.2.5 0 0 .1 0 .1.1.1-.2.2-.3.3-.5z"/><path class="st0" d="M67.7 82.1c.5.4.2.7 0 .9-.9 1.7-1.8 3.4-2.7 5-.5 1-1 1.9-1.5 2.9-.4.7-.8 1.4-1.1 2 .5.9.5 1 1.4.8 1.4-.3 2.8-.2 4 .6.1.1.2.1.4.2.1-.4.3-.8.4-1.2 0 0-.1 0-.1-.1-.2.2-.3.4-.5.6-.5-.1-.4-.5-.3-.8.2-.7.5-1.4.8-2.1 1-2.4 2.1-4.7 3.4-7 .7-1.3 1.4-2.7 1.8-4.1.3-.9.9-1.7 1.3-2.5.1-.3.3-.6.7-.4.1.3.2.7.2 1 0 .2-.1.4-.2.6-.6 1.3-1.3 2.5-1.9 3.8-1.2 2.6-2.4 5.3-3.5 8-.6 1.4-1.1 2.9-1.7 4.3 1.7 1 2.8 2.4 4 4 .5-1.1 1-2 1.3-3 1.2-3.1 2.3-6.2 3.5-9.3.4-1.1.8-2.1 1.3-3.1.1-.3.3-.7.7-.6.5.1.2.5.2.8.1.8-.2 1.3-.9 1.6-.2.1-.3.3-.4.5-.6 1.6-1.2 3.3-1.8 4.9-.8 2.1-1.6 4.2-2.5 6.4-.1.4-.3.7-.4 1.1l-.7 1.4c.1.7.1.7-.6 1 .1.4.1.8.2 1.1.1.5 0 .9-.5 1.2-.3-.2-.4-.4-.4-.9.1-.8 0-1.6-.2-2.4-.4-1.8-1.6-2.9-3-3.9-.5-.3-1-.5-1.6-.5-1.6-.1-3.2-.3-4.9.1-.7.2-1.4.3-1.9.8-.1.1-.3.1-.5.1 0-.8 0-.9.7-1.2.5-.2.9-.4 1.4-.5V94c-.2-.1-.5-.2-.8-.3.1-.3.2-.6.3-1-1.3-1.3-2.9-1.8-4.7-1.5-.5.1-1 .2-1.6.4-.2 0-.4 0-.7.1.4-.5.9-.6 1.3-.8-1-.2-2.2.2-2.8.9l-.1.1c-.2.3-.5.3-.7.1-.2-.2-.2-.5 0-.7.3-.2.5-.5.9-.6 1.5-.6 3.1-.8 4.8-.6 1.3.1 2.4.9 3.6 1.5.2.1.4.2.6.4 1-1.7 1.9-3.5 2.9-5.2 1.1-1.4 1.9-3.2 3.1-4.7zM103.8 15.9c1.3 0 3.2.2 4.6 1.8.3.4.5.9.7 1.3 1.1 2.4.6 4.6-.9 6.7-1.2 1.7-2.9 2.6-4.9 3.1-1.1.3-2.2.1-3.1-.6-.8-.5-1.7-1-2.4-1.6-1.4-1.1-1.7-3.1-.9-4.7.5-.9.9-1.8 1.5-2.6.8-1.2 3.2-3.1 5.4-3.4zm3.2 1.6c-.2-.1-.4-.2-.5-.3.1.3.2.4.5.3.1.3.3.4.7.4-.3-.1-.5-.2-.7-.4zm-3.3.6c-.4-.2-1-.2-1.5.1-1.3.6-2.5 1.4-3.4 2.5-.4.4-.7.9-.8 1.5-.3 2.3 1.5 3.7 3.2 3.9 1.8.2 3.5-.3 4.9-1.5.2-.2.5-.4.6-.7.5-1 .9-1.9 1.3-2.9.2-.6.2-1.1-.2-1.7-.8-1.2-2.1-1.7-3.5-1.8-.1.2-.3.4-.6.6zm5.2 3.1c-.6 3.4-2.3 5.8-5.7 6.8 3.6-.7 6.2-3.8 5.7-6.8zm-5.7 5.7c-.6 0-1.2.1-1.8.1-.6-.1-1.1-.3-1.8-.5.7 1 2.3 1.2 3.6.4z"/><path class="st0" d="M102.8 18.6c1.2 0 2.6-.2 3.7.7.6.4.8 1 .6 1.6-.5 1.3-1.1 2.6-2 3.7-.8 1-3.3 1.4-4.5.7-.2-.1-.4-.3-.5-.4-.7-.9-.9-2-.9-3.1 0-.1 0-.1.1-.2.8-1.3 1.7-2.6 3.5-3zm.6 1.3c.4.2.7.3 1.1.1.2-.1.4 0 .8.1-.6-.5-1.1-.8-1.9-.6v.4z"/></g></svg>