<svg id="Layer_1" xmlns="http://www.w3.org/2000/svg" viewBox="0 0 82.1 67.3"><style>.st0{fill-rule:evenodd;clip-rule:evenodd;fill:#E6E8EB;}</style><path class="st0" d="M66.8 36.7c-.4-.4-.7-.6-.9-.9l-.9-.9c-.1-.1 0-.4 0-.6.2 0 .4 0 .5.1.3.2.5.5.7.8.7.7 1.4 1.6 2.7 1.2-.1.9.6 1.1 1.1 1.5-.3.3-.5.5-.9.5-.6 0-1.2.2-1.8.4l-4.2 1.8c-.2.1-.3.1-.6.1.4-.3.8-.5 1.3-.8.5-.3 1-.6 1.5-.8.5-.3 1-.5 1.5-.7.5-.2 1-.4 1.6-.6-.3-.4-.6-.6-1-.5-1.1.1-2.2.2-3.3.2-1.4 0-2.8.1-4.2.3-.6.1-1.1.1-1.7.1-.8 0-1.3.3-1.8.8-.7.7-1.5 1.5-2.3 2.2-1.4 1.4-2.8 2.7-4.2 4.1l-.2.2c-1.1.5-1.3 1.5-1.3 2.5-.1 1-.2 2-.3 3.1-.1.6 0 1.2 0 2 1.3-1.5 2.1-3.1 3.3-4.4.1 0 .1.1.2.1-.3.5-.6 1.1-.9 1.6l-1.2 1.8c-.4.6-.7 1.1-.7 1.8v.2c-.1.2-.3.4-.4.5-.1 0-.3-.2-.4-.4-.4-.7-.7-1.4-1.1-2.1-.1-.2-.3-.3-.6-.6-.1-.3-.2-.7-.3-1.2-.1-.2-.2-.5.1-.6.2 0 .5.1.6.3.3.4.5.9.8 1.4.1-.3.2-.5.2-.7.1-.9.2-1.9.3-2.8 0-.3.2-.7-.2-1 0 0-.1-.1-.1-.2.2-.7.3-1.3.5-2.2l.7.7c.4-.2.2-.5 0-.7-.5-.5-1-1.1-1.5-1.6l-3.3-3.3c-.3-.3-.6-.5-.9-.7-.3-.2-.7-.3-1.1-.4 0-.1-.1-.4-.3-.6-.3-.6-.3-.7.3-1 2-1.3 3.6-2.9 5.2-4.6.5-.5 1-.9 1.5-1.3.2-.2.6-.2.6-.6 0-.4-.1-.9-.3-1.3-.1-.3-.4-.5-.6-.8-.1-.2-.3-.3-.3-.5 0-.1 0-.4.1-.5.1-.1.4 0 .5.1.2.2.3.4.6.8.2-1 .4-1.8-.1-2.8-1.7.3-3.4.3-5.1.1.1-.8.3-1.4.3-2 .1-.6 0-1.3 0-1.8-1.7-.4-3.1.6-4.6 1 .5-.8 1.5-1 2.1-1.6-1.7 0-3.5.1-5.2.2-.4 0-.7.1-.8-.4.3-.5.8-.5 1.3-.5 1 .1 1.9.2 2.9.2.5 0 1.1 0 1.6-.1v-.2c-.2-.2-.5-.3-.7-.5-.1-.1-.2-.3-.1-.4.1-.1.3-.2.4-.2.3.1.5.3.8.5.5.3.9.7 1.6.7.4-.5.9-1 1-1.9 0-.5.5-.8.9-.9.5-.2 1.1-.3 1.7-.3 1.2 0 2.5.1 3.7.1 1.5.1 3.1.1 4.6.2.7 0 1.3.2 1.9.4.1 0 .3.2.3.3 0 .1-.2.3-.2.3-.4 0-.7 0-1.2-.1-.3.7-.6 1.6-.8 2.5-.3 1.3-.4 2.7-.6 4 0 .3 0 .7-.6.9-.2-1.3.1-2.6.3-3.8.2-1.3.5-2.5.8-3.8-.2-.1-.4-.1-.6-.1l-5.7-.3h-1.7c-.4 0-.8.1-1.2.4.3.1.5.2.8.3-.1 0-.2.1-.2.1h-1.1c-.5 1.3-.9 4.8-.7 6.3.8.1 1.7.4 2.6.2 1.6-.4 3.2-.3 4.8-.4.1 0 .2.1.3.1-.7 1-1.8.4-2.7.7-.2.6.1 1.2.1 1.7 0 .6-.2 1.1-.2 1.8.4-.2.4-.6.6-.9.2-.3.4-.6.9-.4 0 1-1 1.7-1.1 2.7.6.5 1.3 1 1.8 1.6.9.9 1.7 1.9 2.6 2.9.5.5 1.1 1 1.6 1.6-.1.1-.3.3-.5.6-.8-.9-1.5-1.7-2.2-2.5-1.1-1.2-2.2-2.4-3.6-3.3-.1-.1-.3-.1-.4-.2-.5.5-1.2.8-1.1 1.6 0 .1-.1.2-.2.3-.6.4-1.2.8-1.9 1-.2 0-.3.1-.5.2-1.3 1-2.5 2.1-3.7 3.1 0 0 0 .1-.1.2l.9.9c1.7 1.7 3.4 3.3 5.1 5l.6.6c.6.5 1 .5 1.6-.1l5.4-5.4c.7-.7 1.4-1.1 2.4-1.1 2.6-.1 5.2-.4 7.8-.3 0-.2.2-.3.7-.3zM13.7 22.6c1-.4 1.9-.1 2.8-.2.9-.1 1.8 0 2.7 0h2.7c0-.1 0-.1.1-.2l-.9-.6c-.1-.1-.1-.3-.2-.4.2 0 .4-.1.5-.1.5.3 1 .6 1.6.7.2 0 .3.4.5.7.1-.3.3-.4.3-.6.1-.7.2-1.4.3-2 .2-1.5.6-1.9 2.1-1.9 1.2-.1 2.4 0 3.5 0 1.5 0 2.9.1 4.4.1.4 0 .9-.1 1.1.2 0 .6.1 1.2 0 1.7-.1.6-.3 1.3-.4 1.9-.1.6-.3 1.2-.4 1.8-.1.3 0 .6-.1.9 0 .3-.1.6-.2 1-1-.8-1.9-.5-2.9-.3-.6.1-1.3.3-1.9.5-1.7.5-3.4.5-5.1.5-.6 0-.7-.2-.7-.8V24c-1.4-.2-2.4.7-3.6 1.2.1-.3 0-.6.1-.7.4-.3.8-.5 1.2-.8.3-.2.6-.4 1-.6v-.2c-.3 0-.6-.1-.9-.1-2.1 0-4.2.1-6.2.1-.5.1-.9.2-1.4-.3zm11.5-.2c-.2.2-.3.4-.4.5-.7.5-.7 1.2-.6 2 .1.6.2.7.8.7.9 0 1.8 0 2.6-.1 1.9-.3 3.7-.7 5.6-1.1.4-.1.6-.3.6-.6l.9-5.1c-.9 0-1.6-.1-2.4-.1-1.6 0-3.1-.1-4.7-.1-.4 0-.8.1-1.2.2-.3.1-.5.2-.8.2-.4 0-.5.3-.5.6s0 .6.1 1c-.7.3-.7.4-.8 1.7.2-.1.4.1.8.2z"/><path class="st0" d="M12.7 26.8c-.1-.6-.1-1.2-.2-1.7-.8-.1-1.6.1-2.3.3-1.5.4-3 .9-4.5 1.3-.6.3-1.4.3-2.1.5-.8.1-1.5 0-2.3-.3 0-1 0-2 .1-3.1.1-1 .3-1.9.5-3-.5.1-.8.3-1.2.4-.3.1-.6 0-.7-.3-.1-.3.1-.5.4-.6.1 0 .2-.1.2-.1.4-.1.9-.1 1.2-.3.3-.2.5-.5.8-.9.5.8 1.3.6 2 .6.4 0 .8-.1 1.2 0 2.1.4 4.1.3 6.2.1.4 0 .8 0 1.1-.5.1-.3.4-.3.6-.1.3.5.7.3 1.1.3.4 0 .8-.2 1.1.2 0 .3-.2.5-.5.5-.1 0-.3-.1-.4-.1-1 0-1.1.2-1.3 1.2-.4 1.5-.4 3-.5 4.6 0 .3.2.8-.5 1zm.2-6.5c-.2 0-.3-.1-.4-.1-1.9.3-3.8 0-5.7-.1-1.2-.1-2.5 0-3.7.2-.3.1-.6.2-.7.6-.4 1.6-.6 3.2-.5 4.8 0 .6.1.7.8.8.6 0 1.3.1 1.9-.1 2.5-.6 5.1-1.4 7.6-2 .3-.1.5-.3.6-.6.1-1.2.2-2.3.1-3.5zM6.8 7.6v7.2c0 .3.1.6.2 1 .2-.4.4-.5.5-.7.2-.5.4-1 .5-1.4.2-.4.3-.8.5-1.2.1-.2.4-.4.5-.3.3 0 .3.4.2.6-.1.3-.2.6-.4.9-.6.9-1.1 1.7-1.1 2.8 0 .1-.1.3-.2.4-.3.4-.6.8-1 1.3 0-.2-.1-.3-.1-.3.4-1-.2-1.7-.7-2.4-.4-.9-1.1-1.7-1.7-2.5-.2-.2-.4-.6-.1-.8.3-.2.5.1.7.4.2.3.4.7.6 1 .2.3.4.6.9.8 0-.4.1-.8.1-1.2 0-1.6.1-3.2.1-4.8 0-.9 0-1-.9-1.3-.9-.2-1.7-.7-2.3-1.4C2 4.4 1.8 2 2.9.7c.5-.6.7-.6 1.4-.3C3 .7 2.8 1.7 2.8 2.7c0 1.9.8 3.3 2.8 4 .3.1.6-.1 1-.1.3.5.8.4 1.4.1 2-.8 2.9-2.4 3.2-4.5.1-.7-.4-1.4-.9-1.9-.2-.1-.3-.1-.5-.3 1 0 2 .9 1.9 1.8-.1 1.7-.6 3.2-1.8 4.5-.6.7-1.5 1-2.4 1.2-.2 0-.4.1-.7.1zM40.7 61.9c0-1.4.6-2.5 1.4-3.6 1.2-1.5 2.7-2.7 4.5-3.3.6-.2 1.2-.2 1.9-.1.5 0 .9.4 1.1.9.1.5.5.6.8.8.5.3 1.1.6 1.5.9 1.9 1.4 2.2 3.4.9 5.3-.9 1.5-2.2 2.7-3.7 3.5-2.2 1.2-4.3 1.1-6.4-.2-1.1-.7-1.6-1.9-1.9-3.2 0-.3-.1-.6-.1-1zm8.4-5.8c-.7-.7-1.5-.8-2.3-.5-1.5.5-2.8 1.3-3.9 2.5-1.2 1.4-1.9 2.9-1.5 4.8.5 2.7 3.1 4.5 5.8 3.7 2.2-.7 3.9-2.2 5.1-4.1 1-1.6.9-3.1-.4-4.2-1.8-1.5-3.7-2.5-6.1-1.2l-.1-.1c.9-1 2.1-1.1 3.4-.9zM70.7 39c.1-.8.1-1.6.2-2.3.1-.5.3-1.2.6-1.6.7-.8 1.4-1.5 2.2-2.2.6-.5 1.4-.7 2.2-.2.2.1.5.1.7 0 1.9-1 4.8.9 5.1 2.8.1.5.3 1 .4 1.5.3 1.2 0 2.3-.8 3.2-1.2 1.5-2.7 2.6-4.5 3.5-2.8 1.3-6.2-.9-6.2-3.9.1-.3.1-.5.1-.8zm4.8-5.7c0-.1 0-.2-.1-.2-.3 0-.6 0-.8.1-.5.3-1 .5-1.3.9-.8.7-1.6 1.5-1.7 2.6-.1 1-.2 2-.2 3.1.1 2.6 2.9 4.4 5.4 3.3 1.5-.7 2.7-1.7 3.8-2.8.7-.7 1.3-1.6 1.1-2.8-.1-.7-.3-1.4-.5-2-.3-1.3-2.1-2.8-3.6-2.4-.9.2-1.9.5-2.7 1.1-.2.1-.3.2-.5.3 0 0 0-.1-.1-.1.3-.4.8-.8 1.2-1.1zM50.1 32.3h-.7v-.1h.7v.1z"/></svg>