<svg id="Layer_1" xmlns="http://www.w3.org/2000/svg" viewBox="0 0 216 56.1"><style>.st0{fill:#0097CF;}</style><path class="st0" d="M49.8 55h-6.3c-2.4 0-4.3-1.9-4.3-4.3V0h10.6v55zM92.8 55h-6.1c-2.4 0-4.3-1.9-4.3-4.3v-.1C79.8 53.8 76 56 70.6 56c-10.9 0-19.1-8.9-19.1-20.8s8.2-20.8 19.1-20.8c5.4 0 9.2 2.2 11.8 5.4v-4.4h10.4V55zM62.4 35.3c0 6 4 10.9 10.2 10.9 6.1 0 10.2-4.6 10.2-10.9 0-6.2-4.1-10.9-10.2-10.9-6.2 0-10.2 4.9-10.2 10.9zM106.3 55H100c-2.4 0-4.3-1.9-4.3-4.3V0h10.6v55zM150.6 35.3c0 11.9-9.1 20.8-21.4 20.8-12.3 0-21.3-8.9-21.3-20.8s9-20.8 21.3-20.8 21.4 8.9 21.4 20.8zm-31.8 0c0 6.4 4.5 10.9 10.5 10.9s10.5-4.5 10.5-10.9-4.5-10.9-10.5-10.9c-6.1 0-10.5 4.5-10.5 10.9zM216 29.9V55h-6.3c-2.4 0-4.3-1.9-4.3-4.3V33.3c0-5.7-2.9-8.8-7.7-8.8-4.6 0-8.4 3-8.4 8.9V55H183c-2.4 0-4.3-1.9-4.3-4.3V33.3c0-5.7-2.9-8.8-7.7-8.8-4.6 0-8.4 3-8.4 8.9V55h-6.3c-2.4 0-4.3-1.9-4.3-4.3V15.6h10.3v4.6c2.8-4.2 7.1-5.7 11.6-5.7 5.7 0 10.4 2.6 13 6.8 3.1-5 8.2-6.8 13.4-6.8 9.4 0 15.7 6.2 15.7 15.4zM34.6 23.6c-1 2.1-3.4 3-5.5 2.2-3.1-1.2-7.1-2.3-11-2.4-4-.1-5.9 1.3-5.9 3.5 0 2.3 2.2 2.9 5.8 3.5l4.8.6c8.6 1 15 5.1 14.9 12.5-.1 8.2-6.8 12.9-20.1 12.7-5.4-.1-12-1.6-17.5-5L3.7 43c2.6 1.4 8 4.2 13.9 4.3 5.9.1 8.9-.9 9-3.8 0-2.8-3.8-3-8.9-3.7l-2.3-.3C3.8 37.6.9 33.2 1 26.9c.1-8.2 7.9-12.4 17.2-12.3 7.1.1 13.1 2 18.3 4.6l-1.9 4.4z"/></svg>